<?xml version="1.0" encoding="utf-8"?>
<!-- Generator: Adobe Illustrator 28.0.0, SVG Export Plug-In . SVG Version: 6.00 Build 0)  -->
<svg version="1.1" id="Layer_1" xmlns="http://www.w3.org/2000/svg" xmlns:xlink="http://www.w3.org/1999/xlink" x="0px" y="0px"
	 viewBox="0 0 58.6 48" style="enable-background:new 0 0 58.6 48;" xml:space="preserve">
<style type="text/css">
	.st0{fill:#0054A4;}
</style>
<g>
	<defs>
		<rect id="SVGID_1_" x="19.1" y="67" width="133" height="48"/>
	</defs>
	<clipPath id="SVGID_00000093889770686204459730000010038301252186345112_">
		<use xlink:href="#SVGID_1_"  style="overflow:visible;"/>
	</clipPath>
</g>
<g>
	<path class="st0" d="M11.5,14.2l-3.1-1.5l-0.2,0.5l3.1,1.5L11.5,14.2z"/>
	<path class="st0" d="M11.5,9.3c-0.2,0-0.4,0-0.8,0.1c-0.4,0.2-0.7,0.5-0.9,0.7c-0.5,0.8-0.4,1.9,0.5,2.5c0.8,0.5,1.9,0.3,2.5-0.5
		c0.3-0.4,0.5-1.1,0.1-1.8l-0.3,0.5c0.1,0.4,0,0.7-0.2,1c-0.4,0.6-1.2,0.7-1.8,0.3c-0.6-0.4-0.8-1.2-0.4-1.8
		c0.3-0.5,0.8-0.5,0.9-0.5L11.5,9.3L11.5,9.3z"/>
	<path class="st0" d="M15.8,8.5l-2.4-1.1v0.5L14,8.2l-0.6,0.6V10l0.3,0.6l0.4-0.4l-0.4-1l0.9-0.9l1,0.5L15.8,8.5L15.8,8.5z
		 M13.4,7.4L12.5,7l-0.3,0.3l1.3,2.8V8.8l-0.6-1.2l0.6,0.3V7.4L13.4,7.4z"/>
	<path class="st0" d="M17.8,4.8c-0.4-0.5-0.9-0.7-1.4-0.7v0.5c0.4,0,0.8,0.3,1,0.6c0.3,0.4,0.5,1.3-0.2,1.8
		c-0.3,0.2-0.5,0.3-0.8,0.3v0.5c0.4,0,0.8-0.1,1.1-0.4c0.5-0.3,0.7-0.9,0.7-1.4V5.8C18.1,5.4,18,5.1,17.8,4.8L17.8,4.8z M16.4,4.1
		c-0.4,0-0.8,0.1-1.1,0.4c-0.5,0.3-0.7,0.8-0.7,1.3v0.2c0,0.3,0.1,0.7,0.4,1c0.3,0.5,0.9,0.7,1.4,0.7V7.2c-0.4,0-0.8-0.3-1-0.6
		c-0.3-0.4-0.5-1.3,0.2-1.8c0.3-0.2,0.5-0.3,0.8-0.3V4.1L16.4,4.1z"/>
	<path class="st0" d="M20.1,4.3c0,0-0.1,0-0.2,0v0.3c0.1,0,0.2,0,0.3-0.1c0.3-0.2,0.5-0.6,0.3-0.9c-0.1-0.2-0.3-0.4-0.6-0.4v0.3
		c0.1,0,0.3,0.1,0.3,0.2C20.3,3.9,20.3,4.2,20.1,4.3z M19.9,4.3c-0.1,0-0.3-0.1-0.3-0.2c-0.1-0.2,0-0.4,0.2-0.5c0.1,0,0.1,0,0.2,0
		V3.2c-0.1,0-0.2,0-0.3,0.1c-0.3,0.2-0.5,0.6-0.3,0.9c0.1,0.3,0.3,0.4,0.6,0.4V4.3L19.9,4.3z"/>
	<path class="st0" d="M25.6,1.9c-0.2-0.8-0.9-1.3-1.7-1.3v0.5c0.6,0,1.1,0.5,1.2,1c0.1,0.5,0,1.4-0.9,1.6c-0.1,0-0.2,0-0.3,0v0.5
		c0.2,0,0.3,0,0.5-0.1c0.8-0.2,1.3-0.9,1.3-1.7V2.3C25.6,2.2,25.6,2.1,25.6,1.9L25.6,1.9z M23.8,0.6c-0.2,0-0.3,0-0.5,0.1
		c-0.8,0.2-1.3,0.9-1.3,1.6v0.2c0,0.1,0,0.3,0.1,0.4c0.2,0.8,0.9,1.3,1.7,1.3V3.7c-0.7,0-1.1-0.5-1.3-1c-0.1-0.5,0.1-1.4,0.9-1.6
		c0.1,0,0.2,0,0.3,0L23.8,0.6L23.8,0.6z"/>
	<path class="st0" d="M29.3,3.4L27.8,0h-0.1v0.9L28.1,2l-0.4,0v0.5l0.6,0l0.5,1L29.3,3.4L29.3,3.4z M27.7,0h-0.4l-1.1,3.5l0.5,0
		l0.3-1l0.6,0V2l-0.4,0l0.3-1.4h0l0.1,0.2V0z"/>
	<path class="st0" d="M33.1,1.1c-0.1-0.2-0.2-0.4-0.5-0.7c-0.4-0.3-0.8-0.4-1-0.4c-1-0.1-1.8,0.6-1.9,1.6c-0.1,1,0.7,1.9,1.6,1.9
		c0.5,0,1.2-0.2,1.6-0.8l-0.6,0c-0.3,0.3-0.6,0.4-1,0.4c-0.7-0.1-1.2-0.7-1.2-1.4c0-0.7,0.7-1.3,1.4-1.2c0.6,0,0.9,0.4,0.9,0.5
		L33.1,1.1L33.1,1.1z"/>
	<path class="st0" d="M34,4l0.8-3.3l-0.5-0.1l-0.8,3.4L34,4z"/>
	<path class="st0" d="M36.8,2.7c0,0,0.1,0,0.1,0c0.2,0.1,0.3,0.3,0.2,0.5c-0.1,0.2-0.2,0.3-0.4,0.3v0.3c0.3,0,0.5-0.2,0.6-0.4
		c0.1-0.3,0-0.7-0.4-0.9c-0.1,0-0.2,0-0.3,0L36.8,2.7L36.8,2.7z M36.7,3.5c-0.2-0.1-0.3-0.3-0.2-0.5c0.1-0.2,0.2-0.3,0.3-0.3V2.5
		c-0.3,0-0.5,0.2-0.6,0.4c-0.1,0.4,0,0.7,0.4,0.9c0.1,0,0.2,0,0.2,0V3.5C36.8,3.5,36.7,3.5,36.7,3.5z"/>
	<path class="st0" d="M38.4,5.5l1.8-3l0.4,0.3l-1.3,2.3l2.8-1.4L42.5,4l-1.8,2.9l-0.4-0.3l1.4-2.3h0l-2.8,1.4L38.4,5.5z"/>
	<path class="st0" d="M43.4,9l0.1-2.2l2.1-0.5L45.1,6L43,6.5l0,0l1.1-1.3l-0.4-0.3l-2.2,2.6l0.4,0.3L43,6.4l0,0l-0.1,2.2L43.4,9z"/>
	<path class="st0" d="M46,10.6l1.3-2.5l-0.3-0.3l-1,0.4v0.5l0.6-0.3h0L46,9.6L46,10.6L46,10.6z M45.6,11.5l0.4-0.8V9.6l-0.1,0.1
		L45.3,9L46,8.7V8.2l-2.5,1l0.3,0.4l1-0.4l0.8,0.9l-0.5,1L45.6,11.5L45.6,11.5z"/>
	<path class="st0" d="M49,13.8c0.5-0.3,0.9-0.9,0.9-1.5v-0.1c0-0.3-0.1-0.6-0.3-0.9c-0.3-0.6-0.9-0.9-1.5-0.9V11
		c0.4,0,0.9,0.1,1.1,0.6c0.4,0.7,0,1.5-0.5,1.8c-0.2,0.1-0.4,0.2-0.7,0.2v0.5C48.4,14.1,48.7,14,49,13.8L49,13.8z M48,10.5
		c-0.3,0-0.6,0.1-0.9,0.3c-0.5,0.3-0.8,0.9-0.9,1.5v0.2c0,0.3,0.1,0.6,0.3,0.8c0.3,0.6,0.9,0.9,1.5,0.9v-0.5c-0.4,0-0.9-0.1-1.1-0.6
		c-0.5-0.8,0-1.5,0.5-1.8C47.5,11,47.8,11,48,11V10.5z"/>
	<path class="st0" d="M9.1,33l1.5-0.8l-1-1.9l-0.6,0.3v-0.4l0.8-0.4l1.3,2.6l-2,1V33L9.1,33z M7.6,31.4l0.9,1.9L9.1,33v0.4l-1,0.5
		l-0.1-0.3l0.2-0.2l-0.9-1.9l-0.2,0l-0.2-0.3l2.3-1.1v0.4L7.6,31.4L7.6,31.4z"/>
	<path class="st0" d="M7.8,31.4L8,31.3L8.4,32l0.5-0.2l-0.3-0.6L8.9,31l0.3,0.5l0.3-0.1l-0.3-0.6l0.3-0.1l0.8,1.5l-0.2,0.2l-0.3-0.5
		l-0.3,0.1l0.3,0.5l-0.2,0.2L9,32.2l-0.4,0.1l0.3,0.6l0,0.2l-0.2,0L7.8,31.4z"/>
	<path class="st0" d="M8.8,32.4v0.1L9,32.6l0.2-0.2l-0.1-0.1l-0.1,0L8.8,32.4z"/>
	<path class="st0" d="M8.7,35.3l0-0.2c0,0,2.3-1.9,2.3-1.9c0,0,0.2-0.1,0.3,0c0.1,0.1,0.7,0.9,0.7,0.9s-0.9,0.3-1.1,0.3
		c-0.1,0-0.2,0.1-0.2,0.3c-0.1,0.1-0.1,0.3-0.4,0.5c-0.3,0.2-0.4,0.3-0.5,0.2c-0.2-0.1-0.3-0.2-0.3-0.2l0.2-0.3c0,0,0.1,0.2,0.2,0.2
		c0.1,0,0.3,0,0.3-0.1c0.1-0.1,0.1-0.2,0.1-0.4c0-0.1,0-0.3,0.3-0.3c0.3-0.1,0.8-0.3,0.8-0.3l-0.3-0.4l-2.3,1.9L8.7,35.3L8.7,35.3z"
		/>
	<path class="st0" d="M9.5,35.6c0,0,1,0,1.1-0.3c0.1,0.2,0.2,0.3,0.2,0.3l-0.1,0.1L9.5,36V35.6z"/>
	<path class="st0" d="M9.9,36.1c0,0,0.1,0.1,0.2,0.2c0.1,0.1,0.2,0,0.3-0.1c0.1-0.1,1-0.8,1-0.8l-0.5-0.6l0.2-0.3
		c0,0,1.2,1.4,1.3,1.5c0.1,0.1,0.1,0.2,0,0.3c0,0.1-0.1,0.1-0.1,0.1l-0.2-0.1l-0.6-0.6c0,0-1.1,0.9-1.2,1c-0.2,0.1-0.3,0.1-0.4,0
		c-0.1-0.1-0.3-0.3-0.3-0.3L9.9,36.1L9.9,36.1z"/>
	<path class="st0" d="M11.2,36.2l-0.4,1.2l0.4,0.1l0.4-1.1L11.2,36.2z"/>
	<path class="st0" d="M11.8,34.5l0.2-0.3H12l1,1.2l0,0.1l-0.2,0.1l-0.2-0.1L11.8,34.5z"/>
	<path class="st0" d="M17.6,40l0,0.5l0.3,0l0-0.5L17.6,40z"/>
	<path class="st0" d="M16.2,40.7L16.2,40.7c0.3-0.6,0.4-0.6,0.3-0.8c-0.1-0.1-0.3-0.2-0.3-0.2s0,0-0.1,0.2v-0.6c0,0,0.2,0.1,0.3,0.2
		l0.2-0.2l0.3,0.2l-0.2,0.2c0,0,0.1,0.1,0.1,0.1C17,39.8,17,39.9,17,40c0.2,0.2,1.3,0.8,1.4,0.9c0.1,0.1,0.2,0.1,0.1,0.3
		c-0.1,0.1-0.1,0.2-0.2,0.1c-0.1-0.1-1.2-0.8-1.5-0.9l-0.6,0.9L16.2,40.7L16.2,40.7z M16.2,42.3C16.2,42.3,16.2,42.3,16.2,42.3
		c0.4-0.3,0.7-0.9,0.8-1c0.1-0.1,0.1,0,0.2,0c0.1,0,0.1,0.1,0,0.2c0,0.1-0.5,0.7-0.7,1c-0.2,0.3-0.1,0.5,0.2,0.8
		c0.3,0.2,0.6-0.2,0.6-0.2l-0.3-0.3c0,0,0,0-0.1,0.1c-0.1,0.1-0.2,0-0.1-0.2c0.1-0.1,0.6-0.9,0.7-1.1c0.1-0.2,0.1-0.3,0.1-0.3
		l-0.8-0.4c0,0-0.6,0.8-0.7,1.1L16.2,42.3L16.2,42.3z M15.8,40.4c0.1,0.1,0.3,0.2,0.4,0.3v0.6L15.7,42l0,0.2c0,0,0.3-0.2,0.4-0.3
		c0,0,0,0,0,0v0.5c-0.3,0.2-0.4,0.3-0.4,0.3l-0.2-0.1l-0.1-0.3h-0.1L15,42.1v-0.3l0.3,0c0,0,0.3-0.4,0.6-0.8
		c-0.1-0.1-0.2-0.2-0.4-0.3l-0.1,0.1c-0.3,0.4-0.7,0.8-1,1c-0.2-0.2-0.2-0.3-0.2-0.3s0.5-0.4,1-1l0,0c-0.2-0.1-0.3-0.1-0.2-0.3
		c0.1-0.2,0.1-0.2,0.2-0.1c0,0,0.1,0.1,0.2,0.1c0.1-0.1,0.1-0.2,0.2-0.3c0.3-0.6,0.4-0.8,0.4-0.8s0,0,0.1,0v0.6
		C16.1,40,15.9,40.2,15.8,40.4L15.8,40.4z"/>
	<path class="st0" d="M16.2,40l0.1,0.1c0,0,0,0.1,0,0.2c0,0.1-0.2,0.2-0.2,0.2L16,40.3L16.2,40L16.2,40z"/>
	<path class="st0" d="M15.5,40.9l0.2,0l-0.1,0.5h-0.3L15.5,40.9z"/>
	<path class="st0" d="M20.4,41.8l-0.3-0.4c0,0-0.4,0.5-0.6,0.6C19.3,42,19.2,42,19.2,42L19,42.1v0.3l0.5,0.2c0,0-0.2,0.2-0.4,0.3
		c-0.3,0-0.3,0-0.4,0.2c-0.1,0.2,0,0.2,0.1,0.3c0.1,0.1,0.6,0.3,0.8,0.3c0.2,0,0.5-0.1,0.3-0.2c-0.2-0.1-0.3-0.2-0.4-0.2
		c-0.1,0-0.2-0.2,0-0.2c0.2,0,1.1-0.6,1.1-0.6l-0.2-0.3l-0.5,0.3l-0.3-0.2L20.4,41.8L20.4,41.8z"/>
	<path class="st0" d="M18.3,43.7c0,0,0.5,0.2,0.8,0.3c0.2,0,0.5,0,0.5,0l0,0.3h-0.1c-0.1,0-0.3,0-0.4-0.1c-0.1-0.1-0.4-0.1-0.5-0.1
		c-0.1,0-0.1,0-0.1,0L18.3,43.7L18.3,43.7z"/>
	<path class="st0" d="M21.3,43.1l0.3,0.1l0.2-0.5l-0.5-0.2v-0.4l1,0.4l-1,2.1v-1l0.1-0.2l-0.1,0V43.1L21.3,43.1z M21.3,45.5v-0.2
		C21.3,45.3,21.3,45.4,21.3,45.5z M20.8,42.9l0.5,0.2v0.3l-0.6-0.2l-0.2,0.3v-0.9l0.3-0.8l0.4,0.2v0.4l-0.2-0.1L20.8,42.9z
		 M21.3,43.7v1L21,45.2c0.1,0.1,0.2,0.1,0.2,0.1c0,0,0,0,0.1,0v0.2h0c-0.1,0.1-0.2,0.1-0.3,0c0,0-0.2-0.1-0.5-0.2v-0.4
		c0.1,0,0.2,0,0.2,0l0.3-0.5l-0.5-0.2v-0.4l0.6,0.3L21.3,43.7L21.3,43.7z M20.5,42.7v0.9l-0.1,0.2l0.1,0.1v0.4l-0.3-0.1L20,44.6
		c0,0,0.2,0.2,0.4,0.3c0,0,0.1,0,0.1,0v0.4c-0.6-0.3-1.4-0.7-1.4-0.7l0.2-0.3l0.4,0.2L20.5,42.7L20.5,42.7z"/>
	<path class="st0" d="M23.7,42.8c0,0-0.3,0.6-0.3,0.7c0,0.1-0.3,0.2-0.4,0.3c-0.1,0.1-0.2,0.1-0.2,0.3c0,0.1,0.1,0.3,0.1,0.3h0.5
		c0.1,0,0.2,0,0.1,0.1c-0.1,0.1-0.5,0.3-0.6,0.3c-0.1,0-0.2,0.1-0.2,0.3c0.1,0.2,0.1,0.2,0.4,0.2c0.3,0,0.9,0.1,0.9,0.1V45
		c0,0-0.3,0-0.4-0.1c-0.1,0-0.2-0.1,0-0.2c0.2-0.1,0.7-0.6,0.8-0.6c0.1-0.1,0.1-0.1,0.1-0.1s-0.1-0.2-0.3-0.3
		c-0.1,0.2-0.2,0.4-0.2,0.4s-0.2,0.1-0.4,0c-0.2-0.1-0.1-0.2,0-0.3c0.1-0.1,0.6-0.5,0.6-0.5L23.7,42.8L23.7,42.8z"/>
	<path class="st0" d="M25.2,45l0.3,0.1l0.2-1.1l-0.5-0.1v-0.4l1,0.2l-0.5,1.7l-0.5-0.1L25.2,45L25.2,45z M24.9,43.8l-0.2,1.1
		l0.5,0.1v0.3l-1-0.2l0.5-1.8l0.5,0.1v0.4L24.9,43.8z"/>
	<path class="st0" d="M24.9,45.7l0.4-0.1l0.4,0.9l-0.4,0.2L24.9,45.7z"/>
	<path class="st0" d="M24.7,45.7l-0.9,0.7l-0.3-0.3c0,0,0,0,0.1-0.1c0.1,0,0.1-0.1-0.1-0.1c-0.1,0-1.1,0-1.1,0v-0.4
		c0,0,0.9,0.2,1,0.2c0.2,0,0.4,0,0.4,0s0,0.1,0,0.2c0,0.1,0.1,0.1,0.3,0c0.2-0.2,0.3-0.3,0.3-0.3L24.7,45.7L24.7,45.7z"/>
	<path class="st0" d="M29.3,45.9c0.2,0,0.3-0.2,0.3-0.3c0-0.2-0.2-0.3-0.3-0.3V45c0.3,0,0.5,0.2,0.5,0.5c0,0.3-0.2,0.5-0.5,0.5V45.9
		z M28.9,45.6c0,0.2,0.2,0.3,0.3,0.3v0.2c-0.3,0-0.5-0.2-0.5-0.5c0-0.3,0.2-0.5,0.5-0.5v0.2C29.1,45.2,28.9,45.4,28.9,45.6z"/>
	<path class="st0" d="M33.3,46.4c0.1,0,0.3-0.1,0.4-0.2c-0.1-0.4-0.3-0.5-0.4-0.5v-0.6c0.6,0,1.1,1,1.1,1.8c0,0.8-0.9,1.1-1.1,1.1h0
		v-0.3c0.1,0,0.2-0.1,0.3-0.1c0.2-0.1,0.3-0.3,0.3-0.5s-0.1-0.4-0.1-0.4s-0.2,0.1-0.6,0.2V46.4z M32.9,46.4c0,0,0.2,0,0.4,0v0.4
		c-0.2,0-0.5,0.1-0.7,0c0-0.1,0-0.2-0.1-0.3v-0.2c0-0.6,0.3-1.2,0.8-1.2c0,0,0,0,0,0v0.6c0,0,0,0-0.1,0
		C32.9,45.7,32.9,46.4,32.9,46.4L32.9,46.4z M33.3,47.7V48c-0.2,0-0.5-0.1-0.6-0.2c-0.1,0-0.1-0.1,0.1-0.1
		C33,47.8,33.1,47.8,33.3,47.7L33.3,47.7z"/>
	<path class="st0" d="M34.2,43.7l0.2-0.2l1.9,2.5c0,0,2-0.6,3.6-1.5c1.6-0.8,3.3-1.8,5-3.4c1.7-1.6,2.9-3.1,4.2-5.2
		c-0.5-0.7-1.2-1.6-1.2-1.6l-0.6,0.8l0.1,0.2l0.5-0.3l0.7,0.7c0,0-0.9,1.5-1.7,2.5c-0.9,1-2.9,3.2-5.1,4.6c-2.2,1.3-3.5,2-5.2,2.5
		c-1-1.3-1.9-2.5-1.9-2.5L34,43.5L34.2,43.7L34.2,43.7z"/>
	<path class="st0" d="M46.5,36.7l-1.8,1.8c0,0-0.3-0.3-0.4-2.1c0-0.2-0.1-0.3-0.1-0.1c0,0.3-0.2,2.8-0.2,2.8l0.6,0.2l1.9-2l0.6,0.4
		l0.4-0.4L46.5,36.7L46.5,36.7z"/>
	<path class="st0" d="M48.5,37.8c0-0.2,0.2-0.4,0.4-0.4c0.2,0,0.4,0.2,0.4,0.4c0,0.2-0.2,0.4-0.4,0.4C48.7,38.2,48.5,38,48.5,37.8z"
		/>
	<path class="st0" d="M49.2,36.9c0-0.2,0.2-0.4,0.4-0.4s0.4,0.2,0.4,0.4c0,0.2-0.2,0.4-0.4,0.4C49.4,37.3,49.2,37.1,49.2,36.9z"/>
	<path class="st0" d="M47.3,32.2c0,0,0.3-0.6,0.4-0.8c0.5,0.4,2.6,2.6,2.6,2.6l-0.3,0.5l-2.1-2.3l-0.2,0.2L47.3,32.2L47.3,32.2z"/>
	<path class="st0" d="M29.3,31.7c5.2,0,9.5-4.2,9.6-9.4c-0.1-0.1-0.2-0.2-0.3-0.2h-7c0-0.1,0-0.2,0-0.3h6.6
		c-0.4-0.2-0.8-0.4-1.2-0.6L37,21c0.6-0.9,1.1-1.7,1.3-2.1c-1.3-3.7-4.8-6.3-9-6.3v-0.3c4.3,0,8,2.7,9.3,6.6h2.6
		c-1.4-5.2-6.2-9-11.9-9V9.4c5.9,0,10.8,4,12.3,9.4H58c0.3,0,0.1-0.3,0.5,0c0.1,0.1,0.2,0.2,0.2,0.3v0c0,0.2-0.2,0.3-0.3,0.5
		c-0.5,0.5-1.7,1.9-1.7,1.9H39.1c-0.3-0.3-0.7-0.5-1.2-0.7l0.9-1.3h19.1c0.2,0,0.3-0.1,0.4-0.2c0-0.1-0.1-0.1-0.2-0.1H38.6
		c-0.1,0.2-0.6,0.9-1.2,1.9c4.2,1.6,3.2,5.8,1.9,7.8c-2.1,3.2-5.8,5.4-9.9,5.4v-0.3c4,0,7.6-2.1,9.7-5.2c1.3-2,1.6-4.3,0.2-5.9
		c-0.3,5.2-4.6,9.4-9.9,9.4L29.3,31.7L29.3,31.7z M20,22c-0.1,0.1-0.2,0.2-0.2,0.2c0.1,5.2,4.3,9.4,9.5,9.4V32
		c-5.3,0-9.6-4.2-9.9-9.4c-1.4,1.6-1.1,4,0.2,5.9c2.1,3.1,5.6,5.2,9.7,5.2v0.3c-4.2,0-7.8-2.1-9.9-5.4c-1.3-2-2.3-6.2,1.9-7.8
		c-0.6-0.9-1.1-1.7-1.2-1.9H0.6c-0.1,0-0.2,0-0.2,0.1c0,0.1,0.2,0.2,0.4,0.2h19l0.9,1.3c-0.4,0.2-0.8,0.4-1.2,0.7H2.1
		c0,0-1.3-1.3-1.7-1.9C0.2,19.4,0,19.2,0,19.1c0-0.1,0.1-0.2,0.2-0.3c0.3-0.3,0.2,0,0.5,0H17c1.5-5.4,6.4-9.4,12.2-9.4v0.3
		c-5.7,0-10.4,3.8-11.9,9H20c1.4-3.8,5-6.6,9.3-6.6v0.3c-4.2,0-7.7,2.7-9,6.3c0.2,0.3,0.7,1.1,1.3,2.1l0.1,0.2
		c-0.4,0.2-0.9,0.3-1.2,0.6H27c0,0.1,0,0.2,0,0.3L20,22L20,22z"/>
	<path class="st0" d="M29.5,24.4v10.3h-0.4V24.4H29.5z M31.1,23.6l7.2,7.2L38,31l-7.2-7.2C30.9,23.7,31,23.7,31.1,23.6z M30.8,20.3
		l7.1-7.1l0.2,0.3L31,20.6C31,20.5,30.9,20.4,30.8,20.3L30.8,20.3z M29.1,19.8V9.5h0.4v10.3H29.1z M27.6,20.5l-7.1-7.1l0.3-0.3
		l7.1,7.1C27.7,20.4,27.6,20.5,27.6,20.5L27.6,20.5z M20.3,30.8l7.2-7.2c0.1,0.1,0.2,0.2,0.2,0.3l-7.2,7.2L20.3,30.8z"/>
	<path class="st0" d="M33.7,39.2c0,0-2.2-2.4-4.6-3.1C27,35.5,26,35.3,24,35.7c-2,0.4-3.8,1.1-5.5,0.5c-0.2,0-0.3,0-0.1,0.1
		c0.1,0.2,0.3,0.4,0.7,0.6c0.3,0.2,1.4,0.6,2.4,0.7c1.1,0.2,1.6,0.2,3.1-0.3c1.5-0.5,2.2-1,3.7-1c1.6,0,1.9,0.4,4.6,3
		C33.4,39.2,33.7,39.2,33.7,39.2L33.7,39.2z"/>
	<path class="st0" d="M22.6,35.5c-0.3,0-0.9,0.1-1.4,0.3C20.6,36,20,36,19.3,35.9c-0.8-0.1-1.7-0.2-2.5-1C16,34.1,15.1,33,15,32.8
		c-0.1-0.2-0.1-0.2,0.1-0.1c0.2,0.2,0.8,0.7,2.1,1c1.3,0.3,2,0.5,3.1,1.1c0.5,0.3,1.2,0.5,1.9,0.4c-0.7-0.4-0.8-0.4-1.3-0.6
		c-0.5-0.3-0.9-0.7-1.3-1.3c-0.4-0.6-0.5-1.3-0.6-1.6c0-0.3,0-0.5,0-0.7c-0.1-0.2,0-0.3,0.1-0.1c0.1,0.2,0.5,0.6,1,1
		c0.5,0.4,0.9,0.8,1.3,1.5c0.4,0.7,0.4,1.1,1,1.6c0.6,0.5,0.8,0.6,0.4,0.6L22.6,35.5L22.6,35.5z"/>
	<path class="st0" d="M17.8,24.3H5.2c0,0-1.3-1.3-1.7-1.9c-0.2-0.2-0.5-0.5-0.2-0.8c0.3-0.3,0.2,0,0.5,0h15.4
		C19,21.8,19,21.9,18.8,22H3.8c-0.1,0-0.2,0-0.2,0.1c0,0.1,0.2,0.2,0.4,0.2h14.7C18.2,22.9,17.9,23.6,17.8,24.3L17.8,24.3z"/>
	<path class="st0" d="M18.9,33.7c-0.2-0.1-1.8-0.6-2.5-0.9c-0.7-0.3-1.9-0.8-2.4-2.1c-0.6-1.3-1-2.1-1-2.5c-0.1-0.3,0-0.4,0-0.4
		c0,0,0-0.1,0.1,0c0,0.1,0.9,1.4,1.5,1.9c0.6,0.5,1.4,1,1.9,1.4c0.4,0.4,0.9,0.9,1.3,1.3c0.4,0.4,0.7,0.5,0.7,0.5s-0.6-0.9-0.9-1.4
		c-0.3-0.4-0.6-0.9-0.6-1.5c0-0.6,0-1.7,0-1.9c0-0.2,0-0.2,0.2,0c0.1,0.1,0.6,0.8,0.9,1.4c0.3,0.6,0.5,1.3,0.5,1.6
		c0,0.3,0,0.7,0.1,1c0.1,0.3,0.3,1.2,0.5,1.4C19.2,33.9,19.2,33.8,18.9,33.7L18.9,33.7z"/>
	<path class="st0" d="M13.4,27.6c0,0,0.6,0.7,1.1,1.2c0.5,0.4,1.4,1.2,1.4,1.3c0.1,0.1,0.1,0.1,0.1-0.1c0-0.1,0-1,0.1-1.5
		c0.1-0.4,0.1-0.9,0.1-0.9h-1c0,0,0.3,0.7,0.3,0.9c0.1,0.3,0.1,0.4,0.1,0.4s-0.2-0.2-0.4-0.8c-0.2-0.6-0.3-0.6-0.3-0.6H13.4z"/>
	<path class="st0" d="M12.8,18.4c0,0,0-0.9,0.3-2.1c0.4-1.2,0.8-1.9,1.4-2.6c0.1-0.1,0.2-0.1,0.1,0s-0.4,0.9-0.4,2.4
		s0.1,0.6,0.1,2.2L12.8,18.4L12.8,18.4z"/>
	<path class="st0" d="M14.7,18.4c0,0,0.8-0.7,1.6-1.6c0.8-0.8,0.9-1,1-1.1c0.1-0.1,0.2-0.2,0.2,0c-0.1,0.2-0.5,1.6-1.1,2.6H14.7
		L14.7,18.4z"/>
	<path class="st0" d="M14.7,15.1c0-1,0.3-2.3,1.2-3.1c0.4-0.3,0.6-0.5,0.8-0.7c0.2-0.2,0.3-0.2,0.1,0.1c-0.1,0.2-0.5,0.8-0.7,1.9
		c-0.2,1.1-0.5,2-0.7,2.8c0.6-1.1,0.6-1.4,1.8-2c1.1-0.7,1.7-1.3,1.8-1.5c0.1-0.2,0.2-0.2,0.1,0c-0.1,0.2-0.5,1.5-1.5,2.5
		c-1,0.9-2.2,1.7-2.6,2.6c-0.1,0.2-0.2,0.3-0.2,0C14.8,17.2,14.7,16.2,14.7,15.1L14.7,15.1z"/>
	<path class="st0" d="M16.4,13.6c0.1-0.2,0.3-1.5,1.3-2.3c0.9-0.8,2.1-1.3,2.3-1.4c0.3-0.1,0.3-0.1,0.1,0.1
		c-0.2,0.2-0.8,0.9-1.3,1.7c-0.5,0.8-0.8,1.1-1.4,1.4c-0.5,0.3-0.9,0.5-1,0.7C16.4,13.8,16.3,13.8,16.4,13.6L16.4,13.6z"/>
	<path class="st0" d="M24.9,39.2c0,0,2.2-2.4,4.6-3.1c2.2-0.6,3.1-0.8,5.1-0.4c2,0.4,3.8,1.1,5.5,0.5c0.2,0,0.3,0,0.1,0.1
		c-0.1,0.2-0.3,0.4-0.7,0.6c-0.3,0.2-1.4,0.6-2.4,0.7c-1.1,0.2-1.6,0.2-3.1-0.3c-1.5-0.5-2.2-1-3.7-1c-1.6,0-1.9,0.4-4.6,3
		C25.2,39.2,24.9,39.2,24.9,39.2L24.9,39.2z"/>
	<path class="st0" d="M36,35.5c0.3,0,0.9,0.1,1.5,0.3c0.6,0.2,1.1,0.2,1.9,0.1c0.8-0.1,1.7-0.2,2.5-1c0.8-0.8,1.7-1.9,1.8-2.1
		c0.1-0.2,0-0.2-0.1-0.1c-0.2,0.2-0.8,0.7-2.1,1c-1.3,0.3-2,0.5-3.1,1.1c-0.5,0.3-1.2,0.5-1.9,0.4c0.7-0.4,0.8-0.4,1.3-0.6
		c0.5-0.3,0.9-0.7,1.3-1.3c0.4-0.6,0.5-1.3,0.6-1.6c0-0.3,0-0.5,0-0.7c0.1-0.2,0-0.3-0.1-0.1c-0.1,0.2-0.5,0.6-1,1
		c-0.5,0.4-0.9,0.8-1.3,1.5c-0.4,0.7-0.4,1.1-1.1,1.6c-0.6,0.5-0.8,0.6-0.4,0.6L36,35.5L36,35.5z"/>
	<path class="st0" d="M40.8,24.3h12.6c0,0,1.3-1.3,1.7-1.9c0.2-0.2,0.5-0.5,0.2-0.8c-0.3-0.3-0.2,0-0.5,0H39.4
		c0.1,0.1,0.2,0.2,0.3,0.3h15.1c0.1,0,0.2,0,0.2,0.1c0,0.1-0.2,0.2-0.4,0.2H40C40.4,22.9,40.7,23.6,40.8,24.3L40.8,24.3z"/>
	<path class="st0" d="M39.7,33.7c0.2-0.1,1.8-0.6,2.5-0.9c0.7-0.3,1.9-0.8,2.4-2.1c0.6-1.3,1-2.1,1-2.5c0.1-0.3,0-0.4,0-0.4
		c0,0,0-0.1-0.1,0c-0.1,0.1-0.9,1.4-1.5,1.9c-0.6,0.5-1.4,1-1.9,1.4c-0.4,0.4-0.9,0.9-1.3,1.3c-0.4,0.4-0.7,0.5-0.7,0.5
		s0.6-0.9,0.9-1.4c0.3-0.4,0.6-0.9,0.6-1.5c0-0.6,0-1.7,0-1.9c0-0.2,0-0.2-0.2,0c-0.1,0.1-0.6,0.8-1,1.4C40.2,30.3,40,31,40,31.2
		c0,0.3,0,0.7-0.1,1c-0.1,0.3-0.3,1.2-0.5,1.4C39.4,33.9,39.4,33.8,39.7,33.7L39.7,33.7z"/>
	<path class="st0" d="M45.2,27.6c0,0-0.6,0.7-1.1,1.2c-0.5,0.4-1.4,1.2-1.4,1.3c-0.1,0.1-0.1,0.1-0.1-0.1c0-0.1,0-1-0.1-1.5
		c-0.1-0.4-0.1-0.9-0.1-0.9h1c0,0-0.3,0.7-0.3,0.9C43,28.9,43,29,43,29s0.2-0.2,0.4-0.8c0.2-0.6,0.3-0.6,0.3-0.6H45.2z"/>
	<path class="st0" d="M45.8,18.4c0,0,0-0.9-0.3-2.1c-0.3-1.2-0.8-1.9-1.4-2.6c-0.1-0.1-0.2-0.1-0.1,0c0.1,0.2,0.4,0.9,0.4,2.4
		s-0.1,0.6-0.1,2.2L45.8,18.4L45.8,18.4z"/>
	<path class="st0" d="M43.9,18.4c0,0-0.8-0.7-1.6-1.6c-0.8-0.8-0.9-1-1-1.1c-0.1-0.1-0.2-0.2-0.1,0c0,0.2,0.5,1.6,1.1,2.6H43.9
		L43.9,18.4z"/>
	<path class="st0" d="M43.9,15.1c0-1-0.3-2.3-1.2-3.1c-0.4-0.3-0.6-0.5-0.7-0.7c-0.2-0.2-0.3-0.2-0.2,0.1c0.1,0.2,0.5,0.8,0.7,1.9
		c0.3,1.1,0.5,2,0.8,2.8c-0.6-1.1-0.6-1.4-1.8-2c-1.1-0.7-1.7-1.3-1.8-1.5c-0.1-0.2-0.2-0.2-0.1,0c0.1,0.2,0.5,1.5,1.5,2.5
		c1,0.9,2.2,1.7,2.6,2.6c0.1,0.2,0.2,0.3,0.2,0C43.8,17.2,43.9,16.2,43.9,15.1L43.9,15.1z"/>
	<path class="st0" d="M42.2,13.6c-0.1-0.2-0.4-1.5-1.3-2.3c-0.9-0.8-2.1-1.3-2.3-1.4c-0.3-0.1-0.3-0.1-0.1,0.1
		c0.2,0.2,0.8,0.9,1.3,1.7c0.5,0.8,0.8,1.1,1.4,1.4c0.5,0.3,0.9,0.5,1,0.7C42.2,13.8,42.3,13.8,42.2,13.6L42.2,13.6z"/>
	<path class="st0" d="M17.8,27.3H8.3c0,0-1.3-1.3-1.7-1.9c-0.1-0.2-0.3-0.3-0.3-0.5v0c0-0.1,0.1-0.2,0.2-0.3c0.3-0.3,0.2,0,0.5,0
		h10.9c0,0.1,0,0.2,0,0.3H6.9c-0.1,0-0.2,0-0.2,0.1c0,0.1,0.2,0.2,0.4,0.2h10.7c0,0.6,0.2,1.3,0.4,2v0c0.2,0.6,0.5,1.2,0.8,1.6
		c2.2,3.3,6,5.5,10.3,5.5v0.3c-4.4,0-8.3-2.3-10.6-5.7C18.4,28.7,18.1,28,17.8,27.3L17.8,27.3z M52.3,25c0-0.1-0.1-0.2-0.2-0.3
		c-0.3-0.3-0.2,0-0.5,0H40.8c0,0.1,0,0.2,0,0.3h10.9c0.1,0,0.2,0,0.2,0.1c0,0.1-0.2,0.2-0.4,0.2H40.8c0,0.6-0.2,1.3-0.4,2
		c-0.2,0.6-0.5,1.2-0.8,1.7c-2.2,3.3-6,5.5-10.3,5.5v0.3c4.4,0,8.3-2.3,10.6-5.7c0.3-0.5,0.6-1.1,0.9-1.8h9.5c0,0,1.3-1.3,1.7-1.9
		C52.1,25.3,52.3,25.2,52.3,25L52.3,25z"/>
	<path class="st0" d="M38.4,18.1c-0.2-0.2,0-0.4,0.2-0.5c0.3-0.2-0.2-0.3-0.2-0.5c-0.1,0-0.2,0-0.3-0.2c-0.1-0.1,0.1-0.3,0-0.3
		c-0.1,0-0.2-0.1-0.2-0.1c-0.1-0.1,0-0.3-0.1-0.3c-0.2-0.2-0.7-0.3-0.7-0.6c0.1,0,0.1,0.1,0.2,0c-0.2,0-0.1-0.3-0.3-0.3
		c0,0-0.1,0-0.1,0c0-0.1-0.1-0.2-0.1-0.3c-0.1,0-0.1,0-0.2,0c0-0.2-0.1-0.3-0.2-0.4c-0.1-0.1,0-0.3,0-0.4c-0.1,0.1-0.2,0.1-0.2,0
		c-0.2-0.2-0.4-0.4-0.5-0.6c0-0.2-0.1-0.3-0.2-0.5c0,0,0-0.1,0-0.2c0.1-0.1,0.1,0.2,0.1,0.1c0-0.3-0.3-0.7-0.6-0.6
		c-0.2,0.1-0.3,0.2-0.5,0.2c-0.2,0.1-0.5,0.2-0.8,0.2c-0.1,0-0.3,0-0.3,0.1c-0.1,0.3,0.1,0.6,0.3,0.8c0.1,0.2,0.1,0.4,0.3,0.6
		c0,0-0.1,0-0.1,0c0,0,0,0.1,0,0.1c0.1,0,0.2,0.1,0.2,0.2c0.1,0.1,0,0.2,0,0.3c0.1,0.1,0.2,0.3,0.3,0.3c0.2,0.1,0.3,0,0.5,0
		c0,0,0.1,0.1,0.1,0.1c0.1,0.3-0.1,0.6,0.1,0.9c0.1,0.1,0.3,0.1,0.5,0.1c0,0,0,0.2,0,0.2c0.1,0.1,0.2,0,0.3,0c0,0,0,0.1,0,0.1
		c0,0,0,0,0,0c-0.1,0.3,0.2,0.4,0.4,0.5c0.1,0,0.1,0.2,0.1,0.2c0.2,0.1,0.5,0,0.6,0.1c0,0,0.1,0.2,0.1,0.3c0,0.1,0.1,0.2,0.2,0.1
		c0,0.4,0.5,0.3,0.8,0.4c0-0.2,0.2-0.3,0.2-0.5L38.4,18.1z"/>
	<path class="st0" d="M30.4,11.4c0.2,0,0.1-0.2,0.3-0.3c0.1,0,0.2,0.1,0.2,0c0,0,0-0.1,0-0.1c-0.2,0-0.3-0.2-0.4-0.2
		c-0.4,0.2-0.8,0.4-1.2,0.4c0,0,0,0.1,0,0.1c0.3,0,0.5,0.1,0.7,0.2c0.1,0,0.2,0.2,0.3,0.2C30.5,11.7,30.6,11.5,30.4,11.4L30.4,11.4z
		"/>
	<path class="st0" d="M29.4,12.8c0.1,0,0.2-0.1,0.3,0c0,0.1,0,0.3-0.1,0.4c-0.1,0.1-0.3,0.1-0.4,0C29.2,13,29.3,12.9,29.4,12.8
		L29.4,12.8L29.4,12.8z"/>
	<path class="st0" d="M31.5,12.8c-0.1,0.1-0.2,0.1-0.2,0.1c-0.1,0.1,0,0.2,0.1,0.3c0,0,0,0.1,0,0.1c0,0.1,0.1,0,0.1,0.1
		c0.2-0.1,0.2-0.2,0.3-0.3c0,0,0-0.1,0-0.1c0,0-0.1,0-0.1,0c-0.1-0.1-0.2-0.3-0.3-0.2L31.5,12.8L31.5,12.8z"/>
	<path class="st0" d="M36.4,18.4c-0.1-0.1-0.1-0.3,0-0.4c0,0,0.1,0,0.1,0C36.5,18.1,36.6,18.3,36.4,18.4
		C36.5,18.4,36.4,18.5,36.4,18.4L36.4,18.4z"/>
	<path class="st0" d="M34.9,17.9c-0.2,0.1-0.4,0.2-0.4,0.4c-0.1,0-0.1,0.1-0.2,0.1c0,0,0,0.1,0,0.1c0,0,0.1,0,0.1,0.1
		c0,0,0,0.1,0,0.1c-0.2,0.1-0.3,0.3-0.1,0.4c0.1,0.1,0.2-0.1,0.4-0.1c-0.1-0.3,0-0.4,0.2-0.6c0.1,0,0-0.2,0-0.2
		c0.1,0,0.1-0.1,0.1-0.2C34.9,18,35,17.9,34.9,17.9C34.9,17.9,34.9,17.9,34.9,17.9C34.9,17.9,34.9,17.9,34.9,17.9L34.9,17.9z"/>
	<path class="st0" d="M32.6,14.9c0.3-0.1,0.6,0,0.9-0.1c0.2,0,0.2,0.2,0.3,0.4c0,0.1,0.2,0,0.3,0.1c0.3,0.4,0.5,0.8,0.6,1.2
		c0.1,0.2,0.3,0.4,0.5,0.6c0,0.1,0.2,0.1,0.3,0.2c0,0,0,0.1,0,0.2c0.1,0.1,0.1,0,0.2,0c0,0.2,0.2,0.4,0.3,0.5c0.1,0,0,0.2,0,0.3
		c0,0,0.1,0,0.1,0.1c0,0.1,0,0.2,0,0.3c0,0.2,0.1,0.3,0.1,0.5c-0.1,0-0.3-0.1-0.4-0.1c0,0,0-0.1,0-0.1c-0.1-0.2-0.7-0.3-0.4-0.4
		c0.2-0.1,0.4-0.3,0.3-0.5c0-0.1-0.1-0.1-0.2-0.1c-0.1-0.1,0-0.3-0.1-0.4c-0.1-0.1-0.3-0.2-0.4-0.3c-0.1-0.1,0-0.2-0.1-0.3
		c-0.3-0.2-0.6-0.3-0.7-0.6c-0.1-0.1,0.1-0.3,0-0.5c-0.1-0.2-0.3-0.3-0.4-0.4c0-0.1,0-0.1,0.1-0.2c0,0,0-0.1,0-0.2
		c0-0.1-0.1-0.1-0.2-0.1c-0.1,0.1-0.3,0-0.4,0c-0.1,0-0.1,0.1-0.2,0.1C32.7,15.2,32.6,15.1,32.6,14.9c0.1-0.1,0.2-0.1,0.4-0.1
		L32.6,14.9L32.6,14.9z"/>
	<path class="st0" d="M35.7,17.1L35.7,17.1C35.7,17.1,35.6,17.1,35.7,17.1c-0.1,0.2,0.1,0.3,0.2,0.3C35.9,17.3,35.8,17.1,35.7,17.1
		L35.7,17.1z"/>
	<path class="st0" d="M36,17.7L36,17.7c-0.1,0-0.1,0-0.1,0.1C35.9,17.8,36,18,36,18c0.2,0,0.1-0.3,0.1-0.5
		C36.1,17.6,35.9,17.6,36,17.7C35.9,17.7,35.9,17.7,36,17.7z"/>
	<path class="st0" d="M35.7,20.7c0.1-0.1,0.1-0.3,0.3-0.3c0.1-0.1,0.2-0.1,0.3-0.2c0-0.1,0-0.3,0.1-0.3c0.3-0.1,0.2,0.3,0.1,0.4
		c-0.2,0.4-0.4,1-0.9,0.9c-0.3-0.1-0.1-0.5-0.2-0.8c0-0.2-0.3,0-0.5-0.1c-0.1,0,0.1-0.2-0.2-0.3c0.3,0,0.6-0.2,0.8,0
		C35.6,20.1,35.4,20.7,35.7,20.7L35.7,20.7L35.7,20.7z"/>
	<path class="st0" d="M36.5,20.5c-0.1,0.2,0,0.3-0.2,0.4c0,0,0.1,0.1,0,0.1c-0.1,0-0.2,0.1-0.2,0.1c0.1,0.1,0.4,0.3,0.4,0.2
		c0.2-0.4,0.5-0.9,0.1-1.3C36.6,20.2,36.6,20.3,36.5,20.5c0.1,0,0,0,0,0.1L36.5,20.5L36.5,20.5z"/>
	<path class="st0" d="M36.7,18.8c-0.1-0.1-0.3-0.1-0.3,0c-0.1,0.1,0,0.3,0.1,0.5c0.1,0.2-0.3,0.4,0,0.6c0.1,0,0.3-0.1,0.3-0.2
		C36.7,19.4,36.9,19,36.7,18.8c0.1-0.1-0.1-0.1-0.2-0.1L36.7,18.8L36.7,18.8z"/>
	<path class="st0" d="M32.5,14.5C32.5,14.5,32.5,14.5,32.5,14.5c-0.1,0.2,0.1,0.1,0.1,0.2c0-0.1,0-0.2,0-0.2
		C32.6,14.4,32.6,14.4,32.5,14.5C32.5,14.5,32.5,14.5,32.5,14.5L32.5,14.5z"/>
	<path class="st0" d="M34.4,22.1c0,2.8-2.3,5.1-5.1,5.1v-0.3c2.6,0,4.8-2.1,4.8-4.8s-2.1-4.8-4.8-4.8V17
		C32.1,17,34.4,19.3,34.4,22.1z M29.3,27.2c-2.8,0-5.1-2.3-5.1-5.1c0-2.8,2.3-5.1,5.1-5.1v0.3c-2.6,0-4.8,2.1-4.8,4.8
		c0,2.6,2.1,4.8,4.8,4.8V27.2z"/>
	<path class="st0" d="M21.9,15.5c-0.1-0.2,0.1-0.3,0-0.4c-0.2-0.2-0.4,0.1-0.5,0.2C21.4,15.4,21.7,15.4,21.9,15.5
		C21.9,15.4,21.9,15.5,21.9,15.5C21.9,15.5,21.9,15.5,21.9,15.5L21.9,15.5z"/>
	<path class="st0" d="M29.4,19.8c-0.1,0-0.2-0.2-0.3-0.3c-0.2-0.1-0.3,0-0.4,0c-0.1,0-0.1-0.1-0.2-0.1c0,0-0.1,0-0.2,0
		c-0.2,0-0.1,0.3-0.2,0.4c-0.1,0.2-0.2,0.3-0.4,0.2c0,0-0.1,0-0.1,0.1c-0.3,0.1-0.5,0.1-0.8,0c-0.3-0.1-0.5-0.4-0.9-0.4
		c-0.3-0.1-0.7-0.1-1,0c0,0-0.1,0.1-0.1,0.1c-0.1,0-0.2,0-0.2,0.1c-0.3,0.1-0.3,0.5-0.6,0.6c-0.3,0.1-0.6,0.5-0.5,0.8
		c-0.2,0-0.3,0.1-0.3,0.2c-0.1,0.2-0.2,0.4-0.3,0.6c0,0.1,0,0.4,0,0.6c0,0.2-0.2,0.4-0.1,0.6c0,0.1,0,0.3,0.1,0.3
		c0-0.3,0-0.6,0.3-0.7c0,0,0-0.2,0-0.3c0.1-0.2,0-0.3,0.1-0.4c0.2-0.1,0.2-0.3,0.3-0.5c0,0,0.1,0,0.1,0c0-0.1,0.1-0.1,0.1-0.2
		c0.1-0.1,0.3-0.1,0.3,0c0.3,0.5-0.1,1.3,0.5,1.6c0.3,0.1,0.5,0.3,0.7,0.4c0.2,0.1,0.4,0.2,0.4,0.4c0,0.1,0.3,0.1,0.3,0.2
		c0,0.1,0.1,0.3,0.1,0.4c0.1-0.1,0.2-0.2,0.2-0.3c0.1,0.1,0,0.3,0.2,0.4c0-0.3,0.3-0.6,0.5-0.8c0.1-0.1,0.2,0,0.3-0.2
		c0-0.1,0.1-0.2,0.1-0.3c0.1-0.1,0.3-0.3,0.4-0.4c0.1-0.1,0.2-0.3,0.3-0.4c-0.1,0-0.4,0.1-0.3-0.1c0.2-0.3,0.4-0.3,0.6-0.5
		c0,0,0-0.2,0-0.3c-0.2,0.1-0.4,0.2-0.6,0c-0.1,0,0-0.2,0-0.2c0.2-0.3,0.3-0.5,0.5-0.6c0.1-0.1,0.4-0.1,0.6-0.2
		c0.2-0.1,0.1-0.3,0.2-0.5C29.3,20,29.3,19.9,29.4,19.8L29.4,19.8z"/>
	<path class="st0" d="M24.5,22.6c-0.1,0-0.2,0.1-0.3,0.2c-0.1,0-0.2,0-0.3-0.1c0,0.1,0,0.3,0,0.4c0,0.1-0.3,0.2-0.2,0.3
		c0.1,0.1,0.1,0.3,0.3,0.4c0.1,0,0,0,0-0.1h0c0-0.1,0.1-0.2,0.2-0.2c0.1-0.1-0.1-0.2,0-0.3c0.1-0.2,0.3-0.2,0.5-0.3
		C24.6,22.7,24.7,22.5,24.5,22.6C24.5,22.6,24.5,22.6,24.5,22.6L24.5,22.6z"/>
	<path class="st0" d="M23.9,23.7c0,0.1-0.1,0.2-0.1,0.2c0.1,0.2,0.2,0.4,0.4,0.4c0-0.2-0.1-0.3,0-0.5C24.1,23.9,24,23.8,23.9,23.7
		L23.9,23.7z"/>
	<path class="st0" d="M28.8,21.9c0.2,0.1,0.1,0.3,0.2,0.4c0.2,0.1,0.3,0.1,0.3,0.3c0,0-0.1,0-0.1,0.1c0,0.3-0.2,0.6-0.4,0.7
		c0,0,0,0.1-0.1,0.2c-0.2,0.1-0.4,0.2-0.6,0.2c0,0-0.1,0.1-0.1,0.2c-0.2,0-0.5,0.1-0.6,0c-0.2-0.3,0.4-0.5,0.5-0.7
		c0.2-0.2,0.3-0.5,0.4-0.8C28.5,22.2,28.6,22.1,28.8,21.9c0.1,0.1,0.2,0.1,0.3,0.3H29L28.8,21.9L28.8,21.9z"/>
	<path class="st0" d="M28.9,23.9c-0.1,0-0.2-0.1-0.2,0c-0.1,0.1,0,0.2-0.1,0.4c0.2,0,0.3,0,0.4-0.1C29.1,24,29,23.9,28.9,23.9
		c0-0.1,0,0-0.1,0c0,0-0.1,0,0-0.1L28.9,23.9z"/>
	<path class="st0" d="M29.7,22.9c0,0-0.1,0-0.2,0c-0.1,0.1,0,0.1,0,0.3c0,0,0,0-0.1,0c0,0,0,0.1,0,0.1c0.2,0,0.1-0.1,0.1-0.2
		c0,0,0.1,0,0.1,0C29.8,23,29.8,22.9,29.7,22.9C29.8,22.9,29.7,22.9,29.7,22.9C29.7,22.9,29.7,22.8,29.7,22.9L29.7,22.9z"/>
	<path class="st0" d="M22.5,23.2c0.2,0,0.4,0,0.5,0.1c0.2,0.2,0.4,0.4,0.4,0.7c0.1,0.5,0.3,0.9,0.3,1.4c0,0.1-0.1,0.2-0.1,0.3
		c0,0.3,0.3,0.5,0.6,0.6c0,0.1,0,0.2,0,0.2c0,0,0.1,0.1,0.1,0.1c0,0.1-0.1,0.3-0.1,0.4c-0.1,0.1,0.1,0.3,0.1,0.4
		c0,0.1,0,0.3,0.1,0.4c0.3,0.3,0.6,0.6,1,0.7c0,0,0.1,0.1,0,0.2c-0.3,0.3-0.7,0-1,0.2c-0.2,0.2-0.5,0.3-0.7,0.3
		c-0.3,0-0.3-0.3-0.6-0.3c-0.3,0-0.5-0.2-0.7-0.2h0c-0.1,0.1-0.2,0.1-0.3,0c-0.1,0-0.1-0.1-0.2-0.1c-0.2-0.1-0.3-0.3-0.5-0.5
		c-0.2-0.1-0.4,0-0.6-0.2c-0.1-0.1-0.2-0.2-0.3-0.3c-0.1-0.2-0.1-0.4-0.3-0.5c-0.1-0.1-0.3-0.1-0.5-0.2c0,0,0-0.1,0-0.1
		c-0.1,0-0.3-0.1-0.4-0.1h0c-0.1,0-0.3,0-0.4,0.1c0,0-0.1-0.1-0.1-0.1c0.1,0.1-0.1,0.3,0,0.5c-0.1-0.1,0.1-0.3,0-0.4
		c-0.2-0.2-0.3-0.5-0.2-0.7c0-0.1-0.2-0.2-0.2-0.3c0.1-0.2,0.1-0.3,0.1-0.5c0,0,0-0.1,0.1-0.1c0.3-0.1,0.5,0.3,0.7,0.1
		c0.1-0.1,0.1-0.3,0.2-0.3c0.3,0,0.5,0.1,0.8,0.2c0,0,0.2,0.2,0.2,0c0-0.1,0.2-0.1,0.3-0.2h0c0.2-0.2,0.4,0,0.6-0.1
		c-0.1-0.3,0-0.6,0-1c0-0.1,0.1-0.1,0.1-0.1c0.1-0.2,0.2-0.4,0.2-0.6c0-0.1,0.2-0.2,0.3-0.2c0.2-0.1,0.5-0.1,0.7,0.1
		c0,0,0,0.1,0,0.1L22.5,23.2L22.5,23.2z"/>
	<path class="st0" d="M28.9,24.9c-0.1,0-0.1,0.1-0.2,0.1c0,0.1,0.1,0.3,0.3,0.4v-0.4c-0.1,0-0.2-0.1-0.2,0H28.9L28.9,24.9z"/>
	<path class="st0" d="M34.1,24.7c0,0.4,0.1,0.8-0.1,1.1c0,0.1-0.1,0.3-0.2,0.3c-0.3,0.1-0.7,0.1-1.1,0.2c-0.2,0.1-0.5-0.1-0.8,0
		c-0.1,0-0.3,0-0.4,0.1c-0.1,0.1-0.2,0.2-0.3,0.1c0,0,0-0.2,0-0.2c0.2-0.1,0.1-0.3,0.3-0.5c0.2-0.2,0.4-0.3,0.4-0.5
		c0-0.1-0.3-0.2-0.4-0.1c-0.3,0.2-0.6,0.5-0.5,0.9c0,0.1,0.2,0.3,0.1,0.4c0,0-0.2,0-0.3-0.1c-0.1-0.2-0.3-0.2-0.3-0.4
		c0.1,0.2,0.2,0.6,0,0.7c-0.2,0.2-0.4,0-0.4-0.1c0,0,0-0.2,0.1-0.2c0-0.1,0-0.2-0.1-0.2c-0.2-0.1-0.3,0-0.5,0.1
		c-0.1,0-0.2-0.1-0.3,0c-0.2,0.1,0,0.4-0.2,0.5c-0.4,0.1-0.4-0.4-0.3-0.7c0-0.1,0.2-0.1,0.3-0.2c0.2-0.2,0-0.4,0-0.6
		c0-0.1,0.1,0,0.2-0.1c0-0.1,0-0.3,0-0.3c0-0.3,0.3-0.5,0.5-0.7c0.1-0.1,0.2-0.4,0.3-0.5c0,0-0.1-0.2,0-0.3c0.1-0.1,0.3,0,0.5-0.1
		c0.2-0.1,0.3-0.3,0.3-0.4c0-0.2,0-0.5-0.1-0.7c-0.1-0.1-0.3-0.3-0.4-0.4c-0.1-0.2,0.2-0.5,0.3-0.7c0-0.1-0.1-0.2-0.1-0.3
		c-0.2,0.1-0.3-0.2-0.5-0.2c-0.2-0.1-0.5-0.2-0.7-0.3c-0.3-0.2,0-0.5,0-0.8c0.1,0,0.1,0,0.1-0.1c0.2,0,0.5,0.1,0.7-0.1
		c0,0,0-0.1,0-0.1c0.1-0.1,0.3-0.2,0.4-0.1c0.1,0.1-0.1,0.4-0.1,0.5c0,0,0,0,0.1,0c0.1,0,0.1,0.1,0.1,0.1c0.2,0,0.2,0.1,0.3,0.2
		c0.3,0.2,0.2-0.4,0.3-0.6c0,0,0.1,0,0.2,0c0,0-0.1,0-0.1,0c-0.1-0.2,0.1-0.3,0.2-0.4c0-0.1-0.1-0.2,0-0.3c0,0,0-0.1,0.1,0
		c0.3,0.2,0.6-0.2,0.9-0.3c0.3-0.1,0.6,0.2,0.7,0.5c-0.1,0,0,0.1-0.1,0.1h0c0,0.2-0.2,0.2-0.3,0.3c0,0,0,0.1,0,0.1c0,0,0.1,0,0.1,0
		c0.2-0.1,0.3-0.3,0.5-0.3c0.2,0.1,0.3,0.1,0.5,0.1c0,0,0.1-0.1,0.1-0.1c0.1,0.1,0.2,0.2,0.2,0.4c0,0.1,0.3,0.2,0.3,0.3
		c0,0.3,0.3,0.3,0.4,0.6c0.1,0.3,0.5,0.6,0.7,0.9c0,0.1,0,0.2,0,0.2c-0.1,0.1-0.2,0.2-0.2,0.2c0,0.2-0.3,0.4-0.2,0.6
		c0.1,0.2,0,0.4,0,0.6c0.1,0.4,0.6,0.4,1,0.3c0.1,0.6-0.6,0.8-1.1,0.8c0,0.1-0.1,0.1-0.1,0.1c-0.2,0.2-0.4,0.1-0.6,0.2
		c0,0,0,0,0,0.1c-0.1,0-0.1,0.1-0.2,0.1C34,24.4,34.1,24.6,34.1,24.7L34.1,24.7L34.1,24.7z"/>
	<path class="st0" d="M30.3,22.4c-0.1,0-0.1,0.1,0,0.1c0,0.1,0.1,0,0.1,0C30.4,22.5,30.3,22.4,30.3,22.4z"/>
	<path class="st0" d="M30.6,22.7C30.6,22.7,30.5,22.7,30.6,22.7C30.5,22.7,30.6,22.8,30.6,22.7c-0.1,0.1-0.3,0.1-0.2,0.2
		c0.1,0.1,0.2,0,0.3,0c0,0,0.1-0.1,0-0.1C30.7,22.8,30.6,22.8,30.6,22.7L30.6,22.7z"/>
	<path class="st0" d="M34.8,25.8c-0.1-0.1-0.3-0.1-0.3,0.1c0,0,0,0,0,0c0,0.1-0.1,0.2,0,0.2c0,0,0.1,0,0.1,0c0,0,0-0.1,0-0.1
		C34.7,25.9,34.8,25.9,34.8,25.8C34.9,25.8,34.8,25.8,34.8,25.8L34.8,25.8z"/>
	<path class="st0" d="M31,26.8c0.1,0,0.3,0,0.4-0.1c0.3-0.3,0.8-0.5,1.2-0.2c0.3-0.2,0.7,0.1,1,0c0.3-0.1,0.6-0.3,0.6-0.6
		c0.1,0.3,0.5,0.7,0.4,1.1c-0.1,0.4-0.2,0.5-0.4,0.9c-0.2,0.2,0.1,0.5,0.4,0.6c0.1,0,0.2,0.3,0.2,0.5c0,0.1-0.1,0-0.1,0.1
		c0,0.1,0.1,0.3,0,0.4c0,0.2,0,0.3,0,0.5c-0.1,0.1-0.1,0.3-0.1,0.4c-0.2,0.3-0.5,0.4-0.9,0.5c-0.4,0.1-0.2,0.4-0.6,0.5
		c-0.2,0.1-0.6,0.2-0.7,0.2c-0.3-0.1-0.8-0.3-1-0.4c-0.1-0.1-0.1-0.2-0.1-0.2c-0.1,0-0.1-0.1-0.1-0.1c-0.1-0.2-0.1-0.4-0.1-0.6
		c0-0.1,0.1-0.2,0.1-0.3c-0.1-0.1-0.3-0.2-0.3-0.3c-0.1-0.2,0-0.6-0.2-0.6c-0.3,0-0.7,0.1-1.1,0.1c-0.4,0.1-0.9,0-1.1-0.2
		c-0.1-0.1,0-0.5-0.2-0.7C28,28.3,28,28.1,28,28c-0.1-0.4-0.1-1,0.5-1c0,0,0.1-0.1,0.1-0.1c0.4,0,0.8-0.4,1.1-0.1
		c0.5,0,1.3,0.3,1.5-0.2h0L31,26.8L31,26.8z"/>
	<path class="st0" d="M35.6,27.6c0.2,0,0.4,0,0.4,0.2c0.1,0.3,0.1,0.6,0,0.9c0,0.1,0,0.3-0.1,0.3c-0.2,0.2-0.5,0.1-0.6-0.2
		c-0.1-0.3-0.1-0.5,0-0.8c0-0.1,0.2,0,0.3-0.1C35.6,27.8,35.6,27.7,35.6,27.6c-0.1,0,0,0,0.1,0L35.6,27.6L35.6,27.6z"/>
	<path class="st0" d="M19,27.5c-0.2,0.2,0.2,0.2,0.2,0.4C19.2,27.8,19,27.7,19,27.5z"/>
	<path class="st0" d="M36.8,22.1c0,4.2-3.4,7.5-7.5,7.5v-0.3c4,0,7.2-3.2,7.2-7.2c0-4-3.2-7.2-7.2-7.2v-0.3
		C33.4,14.6,36.8,17.9,36.8,22.1z M29.3,29.6c-4.2,0-7.5-3.4-7.5-7.5c0-4.2,3.4-7.5,7.5-7.5v0.3c-4,0-7.2,3.2-7.2,7.2
		c0,4,3.2,7.2,7.2,7.2V29.6z"/>
	<path class="st0" d="M32.4,22.1c0,1.7-1.4,3.1-3.1,3.1v-0.3c1.5,0,2.8-1.3,2.8-2.8c0-1.5-1.2-2.8-2.8-2.8V19
		C31,19,32.4,20.4,32.4,22.1z M29.3,25.2c-1.7,0-3.1-1.4-3.1-3.1c0-1.7,1.4-3.1,3.1-3.1v0.3c-1.5,0-2.8,1.2-2.8,2.8
		c0,1.5,1.2,2.8,2.8,2.8V25.2z"/>
	<path class="st0" d="M14.3,39.2c0.1,0.1,0.2,0.1,0.3,0.2c0.1,0.1,0.1,0.2,0,0.3c0,0.1-0.2,0.1-0.3,0h0V39.2L14.3,39.2z M14.3,37
		c0.3,0.3,0.8,0.7,0.9,0.9c0.3,0.4,0.3,0.4,0.3,0.4l-0.7,0.8l-0.6-0.5v-0.5l0.5,0.4l0.3-0.3l-0.8-0.7L14.3,37L14.3,37z M13.8,38.7
		c0.2,0.2,0.4,0.4,0.4,0.4c0,0,0,0,0,0v0.5c-0.1-0.1-0.1-0.2-0.2-0.3c0,0-0.2-0.2-0.5-0.4v-0.7c0-0.1,0.1-0.1,0.1-0.2L13.6,38v-0.5
		l0.7,0.6v0.5l-0.2-0.2C14,38.4,13.9,38.6,13.8,38.7z M13.6,40.2c0.1,0,0.3-0.1,0.3-0.1l0.2,0.3c0,0-0.1,0.3-0.4,0.3V40.2z
		 M13.6,36.5v0.7l0.2-0.2l0.5,0.4V37C13.9,36.7,13.7,36.5,13.6,36.5L13.6,36.5z M13.6,39c-0.2,0.4-0.1,0.7-0.1,1
		c0,0.2,0,0.2,0.1,0.2v0.5h-0.1c-0.1,0-0.2,0-0.2-0.1v-2.3c0,0,0.1,0.1,0.2,0.2c0-0.1,0.1-0.1,0.1-0.2V39z M13.4,36.8l0.3-0.3v0.7
		l-0.1,0.1l0.1,0.1v0.5l-0.3-0.3V36.8L13.4,36.8z M13.4,40.6c-0.2-0.3-0.3-1-0.2-1.3c0-0.3,0.1-0.5,0.2-0.6l-0.6-0.6l-0.5,0.6
		l0.6,0.2l-0.2,0.3L11.4,39l0.1-0.4l0.2-0.1l1.6-1.7v0.9l-0.1-0.1l-0.3,0.3c0.1,0.1,0.2,0.2,0.4,0.4V40.6L13.4,40.6z"/>
</g>
</svg>
