<?xml version="1.0" encoding="UTF-8"?><svg id="uuid-803069bb-68bd-4843-b0b5-5d54cb2a8e8f" xmlns="http://www.w3.org/2000/svg" width="543.05" height="184.06" viewBox="0 0 543.05 184.06"><g id="uuid-98a35970-7452-430d-aadc-4091197a7fe9"><g id="uuid-dbfb0c6b-97c4-4f62-9bc8-9ec00929d151"><g id="uuid-867f0263-4389-40c0-910e-c5dd42f3f5bc"><path d="m518.59,154.73h.66c.34,0,.55-.21.55-.5s-.21-.5-.55-.5h-.66v.99Zm.58.47h-.58v1.14h-.51v-3.08h1.2c.6,0,1.04.41,1.04.98,0,.42-.25.76-.63.89l.71,1.21h-.57l-.66-1.14Z" style="fill:#00b1ff; stroke-width:0px;"/><path d="m518.69,154.63h.56c.27,0,.45-.15.45-.39s-.18-.39-.45-.39h-.56v.78Zm.56.21h-.77v-1.2h.77c.39,0,.66.25.66.6s-.27.6-.66.6m.64,1.4h.32l-.68-1.16.12-.04c.35-.13.56-.43.56-.8,0-.5-.39-.87-.93-.87h-1.1v2.87h.3v-1.14h.75l.66,1.14Zm.69.21h-.81l-.66-1.14h-.42v1.14h-.72v-3.3h1.31c.66,0,1.14.45,1.14,1.08,0,.41-.22.76-.58.95l.74,1.27Z" style="fill:#00b1ff; stroke-width:0px;"/><path d="m519.06,152.29c-1.43,0-2.59,1.16-2.59,2.59s1.16,2.59,2.59,2.59,2.59-1.16,2.59-2.59-1.16-2.59-2.59-2.59m0,5.82c-1.78,0-3.22-1.45-3.22-3.22s1.45-3.22,3.22-3.22,3.22,1.45,3.22,3.22-1.45,3.22-3.22,3.22" style="fill:#00b1ff; stroke-width:0px;"/></g><path d="m258.1,46.06c0-7.1-5.28-12.41-12.37-12.41s-12.4,5.36-12.4,12.41,5.31,12.41,12.4,12.41,12.37-5.31,12.37-12.41m-12.37,17.83c-10.44,0-18.14-7.65-18.14-17.83s7.7-17.83,18.14-17.83,18.11,7.64,18.11,17.83-7.68,17.83-18.11,17.83h0Z" style="fill:#00b1ff; stroke-width:0px;"/><path d="m292.11,49.99c0-5-3.65-8.7-8.65-8.7s-8.69,3.74-8.69,8.7,3.69,8.7,8.69,8.7,8.65-3.7,8.65-8.7m-8.22-13.91c7.94,0,13.74,5.92,13.74,13.91s-5.8,13.92-13.74,13.92c-3.43,0-6.48-1.19-8.8-3.21v12.06h-5.45v-36.03h3.67l1.03,3.26c2.4-2.44,5.74-3.9,9.56-3.9Z" style="fill:#00b1ff; stroke-width:0px;"/><path d="m307.15,47.41h16.04c-.98-4.03-4.01-6.41-8.05-6.41s-7.09,2.47-7.98,6.41m21.5,2.64c0,.6-.05,1.19-.11,1.79h-21.53c.68,4.3,3.77,6.94,8.12,6.94,3.17,0,5.73-1.46,7.14-3.88h5.74c-2.11,5.6-6.95,9-12.88,9-7.75,0-13.63-5.98-13.63-13.91s5.86-13.91,13.63-13.91,13.52,6.25,13.52,13.97h0Z" style="fill:#00b1ff; stroke-width:0px;"/><path d="m348.48,36.12c6.2,0,10.07,4.62,10.07,11.15v15.97h-5.45v-14.86c0-4.82-2.1-7.38-6.08-7.38s-7.12,3.35-7.12,8.04v14.2h-5.45v-26.52h3.8l1.06,3.7c2.01-2.67,5.28-4.3,9.18-4.3h0Z" style="fill:#00b1ff; stroke-width:0px;"/><path d="m262.55,93.17c-.14,10.54-7.25,18.1-17.35,18.1s-17.6-7.54-17.6-17.82,7.41-17.81,17.48-17.81c8.39,0,15.4,5.28,16.95,12.76h-5.82c-1.47-4.42-5.84-7.3-11.02-7.3-6.95,0-11.86,5.1-11.86,12.36s4.78,12.36,11.86,12.36c5.49,0,9.95-3.1,11.23-7.77h-12.26v-4.87h18.37Z" style="fill:#00b1ff; stroke-width:0px;"/><path d="m272.19,94.79h16.04c-.98-4.03-4.01-6.41-8.05-6.41s-7.09,2.47-7.98,6.41m21.5,2.64c0,.6-.05,1.19-.11,1.79h-21.53c.68,4.3,3.77,6.94,8.12,6.94,3.17,0,5.73-1.46,7.14-3.88h5.74c-2.11,5.6-6.95,9-12.88,9-7.75,0-13.63-5.98-13.63-13.91s5.86-13.91,13.63-13.91,13.52,6.25,13.52,13.97h0Z" style="fill:#00b1ff; stroke-width:0px;"/><path d="m320.34,97.37c0-5.08-3.61-8.7-8.63-8.7s-8.63,3.62-8.63,8.7,3.61,8.7,8.63,8.7,8.63-3.62,8.63-8.7m-8.63,13.91c-8.11,0-14.18-5.93-14.18-13.91s6.07-13.91,14.18-13.91,14.18,5.92,14.18,13.91-6.08,13.91-14.18,13.91h0Z" style="fill:#00b1ff; stroke-width:0px;"/><path d="m329.69,102.21h5.32c.14,2.8,2.49,4.27,5.69,4.27,2.93,0,5.18-1.24,5.18-3.46,0-2.52-2.85-3.09-6.09-3.64-4.42-.76-9.63-1.76-9.63-7.91,0-4.76,4.11-8.01,10.28-8.01s10.16,3.35,10.27,8.5h-5.16c-.1-2.52-2.03-3.88-5.23-3.88-3.01,0-4.88,1.28-4.88,3.22,0,2.34,2.71,2.8,5.91,3.33,4.48.75,9.93,1.61,9.93,8.15,0,5.15-4.29,8.49-10.76,8.49s-10.69-3.57-10.83-9.07" style="fill:#00b1ff; stroke-width:0px;"/><path d="m379.61,97.37c0-5-3.65-8.7-8.65-8.7s-8.69,3.74-8.69,8.7,3.69,8.7,8.69,8.7,8.65-3.7,8.65-8.7m-8.22-13.91c7.94,0,13.74,5.92,13.74,13.91s-5.8,13.92-13.74,13.92c-3.43,0-6.48-1.19-8.8-3.21v12.06h-5.45v-36.03h3.67l1.03,3.26c2.4-2.44,5.74-3.9,9.56-3.9Z" style="fill:#00b1ff; stroke-width:0px;"/><path d="m411.9,97.35c0-5-3.65-8.7-8.65-8.7s-8.69,3.74-8.69,8.7,3.69,8.7,8.69,8.7,8.65-3.7,8.65-8.7m5.46-13.26v26.52h-4.4l-.53-3.22c-2.4,2.43-5.75,3.89-9.62,3.89-7.9,0-13.81-5.97-13.81-13.92s5.91-13.89,13.81-13.89c3.91,0,7.29,1.48,9.7,3.95l.64-3.32h4.21Z" style="fill:#00b1ff; stroke-width:0px;"/><path d="m439.98,105.68v4.95h-4.05c-5.81,0-9.39-3.58-9.39-9.44v-12.41h-4.74v-1.05l9.22-9.81h.93v6.19h7.89v4.67h-7.85v11.98c0,3.16,1.76,4.92,4.97,4.92h3.02Z" style="fill:#00b1ff; stroke-width:0px;"/><path d="m445.27,84.11h5.45v26.52h-5.45v-26.52Zm-.09-9.73h5.63v5.62h-5.63v-5.62Z" style="fill:#00b1ff; stroke-width:0px;"/><path d="m479.42,97.35c0-5-3.65-8.7-8.65-8.7s-8.69,3.74-8.69,8.7,3.69,8.7,8.69,8.7,8.65-3.7,8.65-8.7m5.46-13.26v26.52h-4.4l-.53-3.22c-2.4,2.43-5.75,3.89-9.62,3.89-7.9,0-13.81-5.97-13.81-13.92s5.91-13.89,13.81-13.89c3.91,0,7.29,1.48,9.7,3.95l.64-3.32h4.21Z" style="fill:#00b1ff; stroke-width:0px;"/><rect x="492.66" y="74.6" width="5.45" height="36.03" style="fill:#00b1ff; stroke-width:0px;"/><path d="m227.61,140.84c0-10.28,7.5-17.81,17.67-17.81,8.13,0,14.65,5.07,16.45,12.81h-5.71c-1.64-4.58-5.65-7.35-10.74-7.35-6.89,0-11.93,5.18-11.93,12.36s5.05,12.33,11.93,12.33c5.25,0,9.31-2.97,10.86-7.84h5.72c-1.79,8.08-8.31,13.3-16.59,13.3-10.17,0-17.67-7.53-17.67-17.79" style="fill:#00b1ff; stroke-width:0px;"/><path d="m288.18,144.75c0-5.08-3.61-8.7-8.63-8.7s-8.63,3.62-8.63,8.7,3.61,8.7,8.63,8.7,8.63-3.62,8.63-8.7m-8.63,13.91c-8.11,0-14.18-5.93-14.18-13.91s6.07-13.91,14.18-13.91,14.18,5.92,14.18,13.91-6.08,13.91-14.18,13.91h0Z" style="fill:#00b1ff; stroke-width:0px;"/><path d="m313.57,130.89c6.2,0,10.07,4.62,10.07,11.15v15.97h-5.45v-14.86c0-4.82-2.1-7.38-6.08-7.38s-7.12,3.35-7.12,8.04v14.2h-5.45v-26.52h3.8l1.06,3.7c2.01-2.67,5.28-4.3,9.18-4.3h0Z" style="fill:#00b1ff; stroke-width:0px;"/><path d="m329.05,149.59h5.32c.14,2.8,2.5,4.27,5.69,4.27,2.93,0,5.18-1.24,5.18-3.46,0-2.52-2.85-3.09-6.09-3.64-4.42-.76-9.62-1.76-9.62-7.91,0-4.76,4.11-8.02,10.28-8.02s10.16,3.36,10.27,8.5h-5.16c-.1-2.53-2.03-3.88-5.23-3.88-3.01,0-4.88,1.28-4.88,3.22,0,2.34,2.71,2.8,5.91,3.33,4.48.75,9.93,1.61,9.93,8.15,0,5.15-4.29,8.49-10.76,8.49s-10.69-3.57-10.83-9.07" style="fill:#00b1ff; stroke-width:0px;"/><path d="m377.35,144.75c0-5.08-3.61-8.7-8.63-8.7s-8.63,3.62-8.63,8.7,3.61,8.7,8.63,8.7,8.63-3.62,8.63-8.7m-8.63,13.91c-8.11,0-14.18-5.93-14.18-13.91s6.07-13.91,14.18-13.91,14.18,5.92,14.18,13.91-6.08,13.91-14.18,13.91h0Z" style="fill:#00b1ff; stroke-width:0px;"/><path d="m403.79,131.34v5.15h-2.88c-4.51,0-6.76,2.57-6.76,7.38v14.14h-5.45v-26.52h3.69l.92,3.62c1.9-2.51,4.5-3.77,8.12-3.77h2.36Z" style="fill:#00b1ff; stroke-width:0px;"/><path d="m422.94,153.06v4.95h-4.05c-5.81,0-9.39-3.58-9.39-9.44v-12.41h-4.74v-1.05l9.22-9.81h.93v6.19h7.89v4.67h-7.85v11.98c0,3.16,1.76,4.92,4.97,4.92h3.02Z" style="fill:#00b1ff; stroke-width:0px;"/><path d="m428.23,131.49h5.45v26.52h-5.45v-26.52Zm-.09-9.73h5.63v5.62h-5.63v-5.62Z" style="fill:#00b1ff; stroke-width:0px;"/><path d="m441.03,146.81v-15.32h5.45v14.56c0,4.61,2.52,7.4,6.61,7.4s6.6-2.85,6.6-7.4v-14.56h5.45v15.32c0,7.14-4.73,11.84-12.05,11.84s-12.06-4.71-12.06-11.84" style="fill:#00b1ff; stroke-width:0px;"/><path d="m502.13,130.89c5.59,0,9.36,4.25,9.36,10.26v16.86h-5.45v-15.52c0-4.27-1.86-6.71-5.16-6.71-3.51,0-6.22,3.22-6.22,7.73v14.5h-5.32v-15.52c0-4.27-1.84-6.71-5.17-6.71-3.53,0-6.25,3.22-6.25,7.73v14.5h-5.45v-26.52h3.86l.94,3.43c1.99-2.49,5.02-4.03,8.24-4.03,3.59,0,6.44,1.77,7.96,4.64,1.93-2.85,5.15-4.64,8.65-4.64h0Z" style="fill:#00b1ff; stroke-width:0px;"/></g><g id="uuid-5432d428-09c8-4447-bdf2-9f556ae6cac4"><path d="m95.53,128.46v45.02s-64.95-37.5-64.95-37.5V60.95s64.95,37.5,64.95,37.5v15.01l-12.96-7.48-6.5-3.75-32.49-18.76v45.02l38.99,22.51v-15.01l-19.49-11.26v-7.5s0,0,0,0v-7.5l32.46,18.74Z" style="fill:#00b1ff; stroke-width:0px;"/><path d="m102.03,72.24l-38.99-22.51,38.99-22.51,38.99,22.51-6.5,3.75-32.49,18.76Zm0-60.03L37.05,49.73l64.98,37.52,64.98-37.52L102.03,12.21Z" style="fill:#00b1ff; stroke-width:0px;"/><path d="m134.58,98.27l13-7.5,13-7.5v15.01s12.96-7.48,12.96-7.48v-29.85l-64.95,37.5v14.84h0v4.48s0,55.55,0,55.55l-.03-.02v.21l64.98-37.52v-30.19l-12.96,7.49v15.01l-38.99,22.51v-45.02s13-7.5,13-7.5Z" style="fill:#00b1ff; stroke-width:0px;"/></g></g></svg>