<?xml version="1.0" encoding="utf-8"?>
<!-- Generator: Adobe Illustrator 28.0.0, SVG Export Plug-In . SVG Version: 6.00 Build 0)  -->
<svg version="1.1" id="layer" xmlns="http://www.w3.org/2000/svg" xmlns:xlink="http://www.w3.org/1999/xlink" x="0px" y="0px"
	 viewBox="0 0 650 260" style="enable-background:new 0 0 650 260;" xml:space="preserve">
<style type="text/css">
	.st0{fill:#FFFFFF;}
	.st1{fill:#00499C;}
	.st2{fill:#9BA4A9;}
</style>
<polygon class="st0" points="71.8,122.5 57.2,115.7 56.3,117.8 70.8,124.7 "/>
<polygon class="st1" points="71.2,88.4 57.1,81.8 56.2,83.9 70.3,90.5 "/>
<path class="st1" d="M71.2,66.6c-0.8-0.1-2-0.2-3.6,0.4c-1.9,0.7-3.3,2.1-3.9,3.1c-2.4,3.6-1.6,8.6,2.1,11.2
	c3.6,2.4,8.8,1.6,11.2-2.1c1.4-1.9,2.1-5,0.5-8.2L76,73.3c0.4,1.6,0.2,3.3-0.7,4.7c-1.7,2.5-5.5,3.3-8.2,1.4
	c-2.8-1.8-3.5-5.5-1.7-8.1c1.4-2.1,3.5-2.3,4.3-2.4L71.2,66.6z"/>
<path class="st1" d="M90.9,62.7l-11-5V60l2.8,1.4l-2.8,2.8v5.4l1.2,2.8l1.7-1.7l-2-4.5l4-4l4.5,2.1L90.9,62.7z M79.9,57.8L75.7,56
	l-1.5,1.4l5.7,12.4v-5.4l-2.8-5.6l2.8,1.4V57.8z"/>
<path class="st1" d="M99.8,46.2c-1.6-2.1-4-3.3-6.5-3.3V45c2,0.1,3.7,1.1,4.7,2.5c1.4,2,2.1,5.8-1.1,8.3c-1.2,0.9-2.5,1.2-3.7,1.2
	v2.1c1.7,0,3.4-0.5,4.8-1.6c2.1-1.6,3.1-3.8,3.3-6.1v-0.6C101.3,49.1,100.7,47.5,99.8,46.2 M93.2,42.9c-1.7,0-3.4,0.5-4.9,1.6
	c-2.1,1.6-3.1,3.8-3.2,6v0.9c0.1,1.6,0.6,3.1,1.6,4.4c1.5,2.1,4,3.2,6.4,3.2v-2c-1.9-0.1-3.7-1.3-4.6-2.5c-1.5-2-2.2-5.8,1.1-8.3
	c1.1-0.9,2.4-1.2,3.6-1.2V42.9z"/>
<path class="st1" d="M110,43.8c-0.3,0.1-0.5,0.1-0.7,0.1v1.3c0.4,0,0.9-0.1,1.3-0.3c1.5-0.7,2.1-2.5,1.4-4c-0.5-1.1-1.6-1.7-2.7-1.7
	v1.3c0.6,0.1,1.2,0.4,1.5,1C111.2,42.3,110.9,43.3,110,43.8 M109.3,43.9c-0.6-0.1-1.3-0.4-1.6-1c-0.4-0.8-0.1-1.9,0.8-2.3
	c0.2-0.1,0.5-0.2,0.8-0.2v-1.3c-0.4,0-0.9,0.1-1.3,0.3c-1.5,0.8-2.1,2.5-1.4,4c0.5,1.1,1.6,1.7,2.7,1.7V43.9z"/>
<path class="st1" d="M134.8,33.2c-0.9-3.6-4.1-6-7.8-6v2.1c2.9-0.1,5.1,2.3,5.6,4.5c0.6,2.4-0.2,6.2-4.1,7.3
	c-0.6,0.1-1.1,0.2-1.6,0.2v2.1c0.7,0,1.4-0.1,2.1-0.2c3.6-1,5.9-4.1,6-7.5v-0.6C135,34.4,134.9,33.7,134.8,33.2 M126.9,27.2
	c-0.7,0-1.4,0.1-2.1,0.3c-3.7,1-5.8,4.1-6,7.4v0.8c0.1,0.6,0.1,1.1,0.3,1.7c0.9,3.5,4.1,6,7.8,6v-2.1c-3,0-5.1-2.4-5.7-4.5
	c-0.6-2.4,0.2-6.2,4.1-7.3c0.6-0.1,1.1-0.2,1.6-0.2C126.9,29.3,126.9,27.2,126.9,27.2z"/>
<path class="st1" d="M151.8,39.8l-7-15.1l-0.4,0.1v3.9l2,4.8l-2,0.2v2.1l2.9-0.2l2.1,4.5L151.8,39.8z M144.4,24.7l-1.6,0.1L138,40.7
	l2.4-0.1l1.4-4.7l2.6-0.2v-2.1l-2,0.1l1.6-6.1h0.1l0.4,0.9L144.4,24.7L144.4,24.7z"/>
<path class="st1" d="M169,29.3c-0.3-0.8-0.9-1.8-2.2-3c-1.6-1.3-3.5-1.7-4.6-1.8c-4.3-0.3-8.2,2.9-8.5,7.4c-0.3,4.4,3,8.4,7.4,8.7
	c2.4,0.2,5.4-0.7,7.3-3.6l-2.8-0.2c-1.1,1.2-2.7,1.8-4.4,1.8c-3-0.3-5.5-3.1-5.3-6.5c0.2-3.3,2.9-5.8,6.2-5.5
	c2.6,0.2,3.8,1.9,4.3,2.4L169,29.3z"/>
<polygon class="st1" points="173,42.5 176.4,27.3 174.2,26.8 170.7,42 "/>
<path class="st1" d="M185.4,36.9c0.3,0,0.4,0,0.6,0.1c0.9,0.4,1.3,1.4,1,2.2c-0.3,0.7-1,1.1-1.6,1.2v1.3c1.3,0,2.4-0.8,2.8-2
	c0.6-1.6-0.1-3.3-1.7-3.9c-0.4-0.1-0.7-0.2-1.1-0.2V36.9z M184.9,40.3c-0.9-0.3-1.3-1.4-1-2.3c0.3-0.7,0.9-1.1,1.6-1.1v-1.3
	c-1.2,0-2.3,0.7-2.8,1.9c-0.6,1.6,0.1,3.3,1.7,4c0.4,0.1,0.7,0.2,1.1,0.2v-1.3C185.2,40.4,185,40.3,184.9,40.3"/>
<polygon class="st1" points="192.8,49.4 200.7,36 202.7,37.2 196.7,47.4 209.3,41.1 211.4,42.4 203.4,55.7 201.4,54.6 207.6,44.2 
	207.6,44.2 194.8,50.6 "/>
<polygon class="st1" points="215.2,65.3 215.6,55.4 225.2,53.4 223.1,51.5 213.6,53.7 213.5,53.6 218.5,47.7 216.8,46.3 206.8,58.2 
	208.5,59.6 213.5,53.6 213.6,53.7 213.1,63.5 "/>
<path class="st1" d="M226.9,72.5l5.7-11.1l-1.4-1.6l-4.3,1.7v2.3l2.8-1.3h0.1l-2.9,5.1L226.9,72.5L226.9,72.5z M225,76.2l1.9-3.7
	v-4.8l-0.2,0.4l-2.7-3l3-1.2v-2.3l-11.2,4.3l1.6,1.8l4.6-1.8l3.8,4.2l-2.3,4.3L225,76.2z"/>
<path class="st1" d="M240.3,86.9c2.4-1.4,3.9-4,4-6.6v-0.6c-0.1-1.3-0.4-2.7-1.2-4c-1.6-2.6-4.3-3.9-7-3.9V74
	c1.9-0.1,3.9,0.6,5.1,2.8c2,3.3,0.2,6.7-2.1,8.1c-0.8,0.4-1.9,0.8-3,0.8V88C237.6,88,239.1,87.6,240.3,86.9 M236.2,71.8
	c-1.5,0-2.9,0.4-4.2,1.1c-2.3,1.4-3.8,3.9-3.9,6.6v0.8c0.1,1.3,0.4,2.6,1.1,3.8c1.6,2.6,4.2,3.9,6.9,3.9v-2.3
	c-1.8,0.1-3.8-0.6-5.1-2.8c-2.1-3.5-0.1-6.8,2.1-8.1c0.8-0.5,1.9-0.8,3-0.9L236.2,71.8L236.2,71.8z"/>
<path class="st1" d="M60.6,173.5l7-3.6l-4.4-8.5l-2.6,1.3v-1.8l3.5-1.6l5.7,11.7l-9.2,4.5C60.6,175.5,60.6,173.5,60.6,173.5z
	 M53.6,166.2l4.1,8.7l2.9-1.5v2l-4.7,2.3l-0.6-1.3l0.9-0.8l-4.1-8.6l-1.1,0.2l-0.8-1.4l10.3-5v1.8L53.6,166.2z"/>
<polygon class="st1" points="54.6,166.3 55.7,165.6 57.4,168.8 59.6,167.8 58.4,165.2 59.8,164.6 61.1,166.8 62.6,166.4 61.1,163.4 
	62.5,162.8 66,169.8 64.9,170.6 63.3,168.1 61.8,168.6 63,171 62,171.7 60.3,169.6 58.5,170.2 59.6,173 59.4,173.8 58.5,174 "/>
<polygon class="st1" points="59.3,170.8 59.3,171.4 60.2,171.8 61,170.7 60.5,170.3 60,170.2 "/>
<path class="st1" d="M58.7,183.8l0.1-0.9c0,0,10.3-8.4,10.5-8.5c0.2-0.2,0.8-0.4,1.3,0.1c0.5,0.6,3.1,4,3.1,4s-4.1,1.3-4.8,1.6
	c-0.6,0.2-0.8,0.5-1,1.1c-0.3,0.6-0.6,1.5-1.9,2.4s-1.7,1.2-2.5,0.8c-0.7-0.5-1.1-1-1.1-1l0.8-1.5c0,0,0.5,1,1.1,1
	c0.6,0.1,1.2-0.1,1.4-0.5c0.3-0.3,0.3-1.1,0.6-1.6c0.2-0.6,0.1-1.2,1.1-1.6c1.1-0.4,3.6-1.4,3.6-1.4l-1-1.8l-10.2,8.4L58.7,183.8z"
	/>
<path class="st1" d="M62.5,185.2c0,0,4.3,0,5.1-1.3c0.6,0.8,0.9,1.4,0.9,1.4l-0.6,0.6l-5.3,0.8L62.5,185.2z"/>
<path class="st1" d="M64,187.6c0,0,0.6,0.5,0.9,0.8c0.3,0.4,1-0.1,1.6-0.5c0.5-0.4,4.4-3.4,4.4-3.4l-2.2-2.8l1.1-1.1
	c0,0,5.5,6.3,5.7,6.8c0.3,0.4,0.4,0.9,0.2,1.3c-0.2,0.5-0.3,0.5-0.3,0.5l-0.8-0.4l-2.6-2.9c0,0-4.8,4.1-5.6,4.6
	c-0.8,0.5-1.4,0.5-2,0.1C64,190.1,63,189,63,189L64,187.6z"/>
<polygon class="st1" points="70,187.9 68.2,193.1 69.9,193.6 71.5,188.5 "/>
<polygon class="st1" points="72.6,180.3 73.4,179.1 73.8,179.1 78.3,184.4 78.3,185.1 77.4,185.6 76.6,185.2 "/>
<polygon class="st1" points="99.1,205 99.3,207 100.7,207.3 100.7,204.9 "/>
<path class="st1" d="M92.5,208.2L92.5,208.2l0.1-0.1c1.4-2.4,1.7-2.8,1.4-3.6c-0.6-0.5-1.2-0.7-1.2-0.7s-0.1,0.2-0.4,0.7v-2.8
	c0.3,0.2,0.7,0.4,1.1,0.7l0.8-1l1.3,0.8l-0.7,1.1c0.3,0.1,0.4,0.3,0.6,0.4c0.4,0.3,0.8,0.8,0.6,1.6c1.1,0.7,5.8,3.8,6.3,4.1
	c0.6,0.4,0.8,0.6,0.5,1.1c-0.4,0.6-0.6,0.8-1.1,0.4c-0.4-0.3-5.3-3.4-6.6-4.2l-2.8,4.2L92.5,208.2L92.5,208.2z M92.5,215.5
	c0.1-0.1,0.2-0.2,0.3-0.3c1.7-1.2,3-3.7,3.4-4.2s0.6-0.1,0.9,0.1s0.4,0.4,0.1,0.8c-0.2,0.3-2.1,3.1-3.1,4.4s-0.3,2.5,1.1,3.4
	s2.6-0.9,2.6-0.9l-1.2-1.2c0,0.1-0.1,0.1-0.3,0.3c-0.5,0.4-0.9-0.1-0.5-0.8c0.4-0.7,2.7-4.2,3.2-5.1s0.3-1.5,0.3-1.5l-3.6-2
	c0,0-2.5,3.8-3.3,4.8L92.5,215.5L92.5,215.5z M90.8,207c0.6,0.4,1.3,0.9,1.7,1.2v2.7l-2.3,3.2l0.1,0.8c0,0,1.4-0.8,2-1.3
	c0.1-0.1,0.1-0.1,0.2-0.2v2.1c-1.4,1-1.6,1.5-1.6,1.5l-0.9-0.4l-0.5-1.3l-0.6,0.1l-1.4-0.6l0.1-1.5l1.4-0.1c0,0,1.4-1.8,2.8-3.7
	c-0.4-0.3-1.1-0.9-1.7-1.3l-0.4,0.4c-1.3,1.8-2.9,3.5-4.4,4.7c-0.8-1-1.1-1.5-1.1-1.5s2.4-1.6,4.6-4.4l-0.2-0.1
	c-0.8-0.4-1.2-0.4-0.8-1.2c0.5-0.8,0.4-0.8,0.9-0.6c0.1,0.1,0.5,0.3,0.9,0.6c0.3-0.4,0.5-0.8,0.7-1.2c1.6-2.8,1.8-3.4,1.8-3.4
	s0.1,0.1,0.3,0.2v2.8C92.1,205,91.4,206,90.8,207"/>
<path class="st1" d="M92.8,204.8l0.6,0.5c0,0-0.1,0.4-0.1,0.7c-0.1,0.3-0.7,0.9-0.7,0.9l-0.9-0.6L92.8,204.8z"/>
<polygon class="st1" points="89.6,209.2 90.6,209.3 90.2,211.5 88.6,211.5 "/>
<path class="st1" d="M111.5,212.9l-1.3-1.7c0,0-1.9,2.3-2.8,2.6c-0.9,0.3-1.3,0.4-1.3,0.4l-0.9,0.6l0.1,1.6l2.1,0.8c0,0-0.8,1-2,1.3
	c-1.1,0.2-1.4,0.2-1.9,1c-0.4,0.8-0.2,0.9,0.4,1.3s2.8,1.2,3.6,1.3c0.8,0.1,2.1-0.5,1.3-1c-0.8-0.4-1.2-0.7-1.7-0.8
	c-0.4-0.2-0.7-0.8,0-1.1c0.8-0.2,5-2.9,5-2.9l-1-1.3l-2.3,1.4l-1.4-1L111.5,212.9z"/>
<path class="st1" d="M101.9,221.7c0,0,2.3,1.1,3.5,1.2c1.1,0.2,2.1,0,2.1,0l-0.2,1.6h-0.6c-0.6-0.1-1.4-0.1-1.9-0.3
	c-0.6-0.3-1.8-0.4-2.3-0.4c-0.4,0-0.6-0.1-0.6-0.1V221.7z"/>
<path class="st1" d="M115.5,218.9l1.2,0.5l1-2.5l-2.2-0.9v-1.6l4.5,2l-4.5,9.5v-4.3l0.5-0.9l-0.5-0.2V218.9z M115.5,229.7V229
	C115.7,229.2,115.7,229.5,115.5,229.7 M113.3,218.1l2.2,0.9v1.6l-2.8-1L112,221v-4l1.5-3.4l2,0.9v1.6l-1.1-0.5L113.3,218.1z
	 M115.5,221.7v4.3l-1.2,2.4c0.6,0.2,0.9,0.4,0.9,0.5c0.1,0,0.2,0.1,0.3,0.1v0.8h-0.1c-0.3,0.3-0.7,0.5-1.3,0.2c-0.2,0-1.1-0.5-2.1-1
	v-1.8c0.5,0.1,0.9,0.1,0.9,0.1l1.3-2.5l-2.2-0.9v-1.8l2.6,1.2L115.5,221.7z M112,217v4l-0.5,0.9l0.5,0.2v1.8l-1.3-0.6l-0.9,2.3
	c0,0,0.9,1,1.6,1.4c0.2,0.1,0.4,0.1,0.6,0.2v1.8c-2.5-1.3-6.3-3.2-6.3-3.2l0.8-1.4l1.8,0.9L112,217z"/>
<path class="st1" d="M126.4,217.8c0,0-1.2,2.7-1.3,3c-0.2,0.3-1.4,0.9-1.9,1.2c-0.5,0.3-1,0.6-0.9,1.1s0.4,1.1,0.4,1.1h2.1
	c0.6,0,0.7,0.2,0.4,0.6c-0.4,0.5-2.3,1.3-2.7,1.4c-0.4,0.2-0.9,0.3-0.7,1.3c0.3,0.9,0.4,0.7,1.7,0.8c1.3,0.1,4.3,0.3,4.3,0.3
	l0.1-1.3c0,0-1.2-0.1-1.9-0.3c-0.6-0.2-1-0.4-0.2-0.9c0.8-0.6,3-2.5,3.5-2.9c0.4-0.4,0.5-0.6,0.5-0.6s-0.4-1-1.5-1.3
	c-0.6,1-0.8,1.6-0.8,1.6s-0.9,0.3-1.7-0.1c-0.8-0.4-0.5-0.8,0-1.2c0.5-0.3,2.8-2.4,2.8-2.4L126.4,217.8z"/>
<path class="st1" d="M133.2,227.4l1.2,0.4l1-5l-2.2-0.6v-1.6l4.5,1.1l-2.1,7.7l-2.3-0.5L133.2,227.4L133.2,227.4z M132,222l-1.1,4.9
	l2.3,0.6v1.4l-4.4-0.9l2.1-8l2.3,0.6v1.6L132,222z"/>
<polygon class="st1" points="131.7,230.7 133.5,230.2 135.2,234.4 133.3,235.3 "/>
<path class="st1" d="M131.1,230.8L127,234l-1.1-1.3c0,0,0.2-0.2,0.4-0.5c0.3-0.2,0.3-0.7-0.4-0.7c-0.6,0-5.2,0.2-5.2,0.2v-2
	c0,0,3.8,0.7,4.6,0.7c0.8,0,1.8-0.3,1.8-0.3s0,0.5,0.1,0.8s0.3,0.6,1.2-0.2c0.8-0.8,1.2-1.2,1.2-1.2L131.1,230.8z"/>
<path class="st1" d="M151.5,231.6c0.8,0,1.5-0.7,1.5-1.5s-0.7-1.5-1.5-1.5v-0.9c1.3,0,2.4,1.1,2.4,2.4s-1.1,2.4-2.4,2.4V231.6z
	 M150,230.1c0,0.8,0.7,1.5,1.5,1.5v0.9c-1.3,0-2.4-1.1-2.4-2.4s1.1-2.4,2.4-2.4v0.9C150.7,228.6,150,229.2,150,230.1"/>
<path class="st1" d="M169.8,233.9c0.6,0,1.3-0.3,2-0.7c-0.6-1.6-1.3-2.1-2-2.3V228c2.6,0.1,5.1,4.5,5.1,8s-4,5.1-5,5.1h-0.1v-1.3
	c0.5-0.2,1-0.4,1.4-0.5c1.1-0.6,1.5-1.6,1.5-2.5s-0.4-1.9-0.4-1.9s-1.1,0.5-2.5,0.8V233.9z M167.9,233.9c0,0,0.9,0.2,1.9,0v1.7
	c-1,0.2-2.2,0.4-3.3,0.2c-0.1-0.5-0.2-1-0.3-1.5v-0.8c0.1-2.7,1.4-5.5,3.5-5.5c0.1,0,0.1,0,0.1,0.1v2.9c-0.1-0.1-0.2-0.1-0.3-0.1
	C167.8,230.7,167.9,233.9,167.9,233.9 M169.8,239.8v1.3c-1,0-2.2-0.6-2.7-0.7c-0.5-0.2-0.3-0.6,0.5-0.4
	C168.2,240.1,169,240,169.8,239.8"/>
<path class="st1" d="M173.8,221.7l0.9-0.7l8.4,11.3c0,0,9.2-2.8,16.3-6.6c7.2-3.7,14.9-8,22.7-15.3c7.7-7.4,13.1-14.1,19.1-23.6
	c-2.2-2.9-5.6-7.1-5.6-7.1l-2.9,3.6l0.6,1.1l2.1-1.6l3,3c0,0-3.8,6.7-7.8,11.4c-3.9,4.6-13,14.6-23,20.5c-10,6-16,8.9-23.6,11.1
	c-4.6-5.8-8.7-11.5-8.7-11.5l-2.4,3.5L173.8,221.7z"/>
<path class="st1" d="M229.2,190l-8,8.3c0,0-1.6-1.5-1.9-9.3c-0.1-0.7-0.6-1.4-0.6-0.3c0,1.3-0.9,12.7-0.9,12.7l2.5,0.9l8.7-9
	l2.5,1.8l2-1.7L229.2,190z"/>
<path class="st1" d="M238.3,195.1c0-0.9,0.8-1.8,1.8-1.8c0.9,0,1.7,0.8,1.7,1.8s-0.8,1.8-1.7,1.8
	C239.1,196.9,238.3,196.1,238.3,195.1"/>
<path class="st1" d="M241.5,191c0-0.9,0.8-1.7,1.8-1.7s1.8,0.7,1.8,1.7s-0.8,1.8-1.8,1.8S241.5,192,241.5,191"/>
<path class="st1" d="M244.6,180.4L244.6,180.4L244.6,180.4z"/>
<path class="st1" d="M232.8,169.8c0,0,1.3-2.7,1.6-3.5c2,1.9,11.5,11.7,11.5,11.7l-1.4,2.4l-9.7-10.2l-1.1,0.9L232.8,169.8z"/>
<path class="st1" d="M151.6,167.3c23.6,0,42.7-18.9,43.1-42.3c-0.4-0.3-0.7-0.7-1.1-1H162c0-0.5,0-1-0.1-1.5h29.5
	c-1.6-1.1-3.4-2-5.5-2.6l0.4-0.8c2.6-4.2,4.9-7.8,5.9-9.3c-6-16.7-21.8-28.6-40.7-28.6v-1.6c19.4,0,35.9,12.3,42,29.6h11.6
	c-6.5-23.4-28-40.7-53.6-40.7v-1.6c26.5,0,48.7,18.1,55.3,42.3h74c1.3,0,0.6-1.3,2.1,0c0.6,0.4,0.8,0.9,0.8,1.2v0.1
	c0,0.8-0.8,1.4-1.5,2.1c-2.1,2.3-7.9,8.3-7.9,8.3h-78.8c-1.5-1.1-3.3-2.2-5.3-3.1l3.8-6.1h86c0.9,0,1.6-0.4,1.8-0.9
	c0.1-0.6-0.6-0.4-1-0.4h-87.5c-0.6,0.9-2.8,4.3-5.4,8.5c18.8,7.2,14.3,26,8.4,34.9c-9.6,14.6-26.1,24.2-44.8,24.2v-1.4
	c18.3-0.1,34.2-9.3,43.7-23.5c5.8-8.8,7-19.3,0.9-26.7c-1.3,23.6-20.7,42.3-44.6,42.4v-1.5H151.6z M109.6,124
	c-0.4,0.3-0.8,0.7-1.1,1c0.4,23.5,19.5,42.3,43,42.3v1.6c-23.8,0-43.4-18.8-44.5-42.4c-6.1,7.4-4.9,18,0.9,26.7
	c9.3,14.2,25.3,23.5,43.6,23.5v1.4c-18.8,0-35.2-9.6-44.8-24.2c-5.9-8.9-10.4-27.8,8.5-34.9c-2.6-4.3-4.8-7.6-5.5-8.5H22.4
	c-0.4,0-1.1-0.2-0.9,0.4c0.1,0.6,0.8,0.9,1.8,0.9h86l3.8,6.1c-2,0.9-3.8,1.9-5.3,3.1h-79c0,0-5.7-6-7.9-8.3
	c-0.6-0.7-1.4-1.4-1.4-2.1v-0.1c0-0.4,0.2-0.8,0.8-1.3c1.5-1.3,0.8,0,2.1,0h74c6.6-24.3,28.7-42.3,55.2-42.3v1.6
	c-25.6,0-47.1,17.3-53.6,40.7h11.5c6.2-17.3,22.6-29.6,42-29.6v1.6c-18.8,0-34.7,12-40.6,28.6c1,1.4,3.3,5.1,5.8,9.3l0.4,0.8
	c-2,0.7-3.8,1.6-5.5,2.6h29.5c-0.1,0.5-0.1,1-0.1,1.5H109.6z"/>
<path class="st1" d="M152.4,134.7v46.6h-1.6v-46.6h0.8H152.4z M159.7,130.9l32.3,32.3l-1.1,1.1L158.6,132
	C158.9,131.7,159.3,131.3,159.7,130.9 M158.3,116.2l32.2-32.1l1.1,1.1l-32.1,32.1C159.1,116.9,158.7,116.6,158.3,116.2 M150.8,113.8
	V67.2h1.6v46.6h-0.8H150.8z M143.8,117.2l-32.1-32.1l1.1-1.1l32.2,32.1C144.5,116.5,144.1,116.9,143.8,117.2 M111,163.5l32.6-32.6
	c0.3,0.4,0.7,0.8,1.1,1.1l-32.5,32.6L111,163.5z"/>
<path class="st1" d="M171.6,201.1c0,0-9.7-11-20.6-13.8c-9.8-2.6-14.1-3.5-23-1.6c-8.9,1.8-17.1,4.9-24.9,2.1
	c-0.7-0.2-1.2-0.1-0.6,0.6s1.6,1.7,3.1,2.8c1.5,1.1,6.2,2.5,10.9,3.2c4.8,0.7,7.1,0.8,14.1-1.4c7-2.3,9.9-4.3,16.8-4.3
	c7.3,0,8.5,1.8,21,13.4C170.2,201.5,171.6,201.1,171.6,201.1"/>
<path class="st1" d="M121.4,184.8c-1.1,0-4,0.5-6.5,1.3c-2.7,0.8-5.1,0.8-8.5,0.3c-3.5-0.4-7.8-0.8-11.3-4.4c-3.6-3.6-7.5-8.6-8-9.5
	c-0.5-0.7-0.2-1.1,0.6-0.3c0.8,0.8,3.4,3.3,9.5,4.4c6,1.1,9,2.1,14.1,4.9c2.4,1.3,5.5,2.3,8.7,2c-3.1-1.8-3.8-1.6-6-2.9
	c-2.1-1.4-4.1-3.2-5.8-5.9c-1.7-2.8-2.4-6-2.6-7.4c-0.1-1.4,0.1-2.3-0.2-3c-0.3-0.7-0.1-1.2,0.5-0.4c0.6,0.8,2.4,2.8,4.5,4.5
	c2.1,1.8,4.1,3.4,5.8,6.8c1.6,3.3,1.8,4.9,4.7,7.2c2.9,2.3,3.5,2.6,2,2.6h-1.5V184.8z"/>
<path class="st1" d="M99.8,134.4H43c0,0-5.7-6-7.9-8.4c-0.9-1-2.3-2.1-0.7-3.5c1.6-1.3,0.9-0.1,2.1-0.1h69.4
	c-0.5,0.5-0.9,0.9-1.4,1.4h-68c-0.4,0-1.1-0.1-0.9,0.3c0.1,0.6,0.8,1.1,1.8,1.1h66.1C101.5,128,100.3,131.1,99.8,134.4"/>
<path class="st1" d="M104.7,176.6c-0.8-0.2-8.2-2.6-11.4-3.8c-3.1-1.2-8.4-3.7-10.9-9.3c-2.5-5.6-4.5-9.6-4.6-11.1
	c-0.3-1.5-0.1-1.6,0-1.8c0.1-0.2,0.2-0.3,0.4,0c0.2,0.2,4.1,6.2,7,8.7c2.8,2.4,6.5,4.5,8.5,6.3s4,3.9,5.8,5.8c1.7,1.8,3,2.4,3,2.4
	s-2.7-4.3-4.1-6.3s-2.8-3.8-2.8-6.8s0.1-7.8,0.2-8.5s0.2-0.8,0.7-0.2c0.4,0.6,2.8,3.5,4.3,6.3s2.3,6,2.3,7.2s0,3.2,0.3,4.5
	s1.6,5.2,2.1,6.3C106.1,177.2,105.9,177.1,104.7,176.6"/>
<path class="st1" d="M79.9,149.1c0,0,2.9,3.3,5.1,5.4c2.1,2,6.1,5.3,6.5,5.8s0.6,0.3,0.6-0.3c0-0.6,0.1-4.6,0.4-6.6
	c0.3-1.9,0.3-4.3,0.3-4.3h-4.6c0,0,1.1,3,1.4,4.3c0.4,1.3,0.3,2,0.3,2s-0.8-0.8-1.9-3.4c-1-2.5-1.1-2.8-1.1-2.8h-7V149.1z"/>
<path class="st1" d="M77,107.7c0,0-0.1-4.3,1.5-9.4c1.6-5.2,3.5-8.5,6.2-11.7c0.3-0.4,0.8-0.6,0.6,0.2c-0.3,0.8-1.8,3.9-1.8,10.8
	s0.3,2.9,0.3,10H77V107.7z"/>
<path class="st1" d="M85.9,107.7c0,0,3.7-3.3,7.3-7.1c3.6-3.7,4-4.3,4.3-5c0.3-0.6,0.9-0.7,0.7,0.2c-0.2,0.9-2.1,7.1-4.8,11.9H85.9z
	"/>
<path class="st1" d="M85.9,92.5c0-4.5,1.1-10.3,5.5-14.2c1.6-1.4,2.7-2.4,3.4-3.1c0.7-0.8,1.2-0.8,0.6,0.3c-0.6,1.1-2.1,3.6-3.1,8.6
	c-1.1,5-2.1,9.1-3.3,12.6c2.8-5,2.9-6.1,8-9.2c5-3.1,7.5-5.9,8.1-6.9c0.6-0.9,0.9-0.7,0.6,0.2c-0.3,1-2.3,6.8-6.9,11.1
	c-4.6,4.3-9.8,7.8-11.6,11.6c-0.4,0.7-0.8,1.2-0.8-0.2C86.2,101.9,85.9,97.7,85.9,92.5"/>
<path class="st1" d="M93.4,85.8c0.3-1,1.6-6.9,5.8-10.5c4.1-3.6,9.4-5.8,10.6-6.3c1.2-0.6,1.3-0.2,0.6,0.4c-0.8,0.7-3.6,4.1-5.8,7.6
	c-2.2,3.5-3.7,5-6.1,6.1c-2.3,1.1-4,2.3-4.5,3C93.4,86.9,93.1,86.8,93.4,85.8"/>
<path class="st1" d="M131.7,201.1c0,0,9.8-11,20.6-13.8c9.9-2.6,14.1-3.5,23-1.6c8.9,1.8,17.1,4.9,24.9,2.1c0.7-0.2,1.2-0.1,0.6,0.6
	c-0.6,0.7-1.6,1.7-3,2.8c-1.4,1.1-6.2,2.5-10.9,3.2c-4.8,0.7-7.2,0.8-14.2-1.4c-7-2.3-9.9-4.3-16.8-4.3c-7.3,0-8.5,1.8-20.9,13.4
	C133,201.5,131.7,201.1,131.7,201.1"/>
<path class="st1" d="M181.8,184.8c1.1,0,4,0.5,6.6,1.3s5.1,0.8,8.5,0.3c3.4-0.4,7.7-0.8,11.3-4.4c3.5-3.6,7.5-8.6,7.9-9.5
	c0.5-0.7,0.2-1.1-0.6-0.3c-0.8,0.8-3.5,3.3-9.5,4.4s-9,2.1-14.2,4.9c-2.4,1.3-5.4,2.3-8.6,2c3.1-1.8,3.8-1.6,5.9-2.9
	c2.2-1.4,4.1-3.2,5.8-5.9c1.7-2.8,2.5-6,2.6-7.4c0.2-1.4,0-2.3,0.2-3c0.3-0.7,0.1-1.2-0.6-0.4c-0.6,0.8-2.4,2.8-4.4,4.5
	c-2.1,1.8-4.2,3.4-5.8,6.8c-1.6,3.3-1.9,4.9-4.8,7.2c-2.9,2.3-3.4,2.6-2,2.6h1.7V184.8z"/>
<path class="st1" d="M203.4,134.4h56.8c0,0,5.8-6,7.9-8.4c0.9-1,2.4-2.1,0.7-3.5c-1.5-1.3-0.8-0.1-2.1-0.1h-69.4
	c0.5,0.5,0.9,0.9,1.4,1.4h68c0.4,0,1.1-0.1,0.9,0.3c-0.2,0.6-0.8,1.1-1.8,1.1h-66.1C201.8,128,203,131.1,203.4,134.4"/>
<path class="st1" d="M198.5,176.6c0.8-0.2,8.2-2.6,11.3-3.8c3.1-1.2,8.5-3.7,10.9-9.3c2.5-5.6,4.5-9.6,4.6-11.1
	c0.3-1.5,0.1-1.6,0-1.8c-0.1-0.2-0.2-0.3-0.4,0c-0.3,0.2-4.1,6.2-7,8.7c-2.9,2.4-6.5,4.5-8.5,6.3s-4,3.9-5.8,5.8
	c-1.7,1.8-3,2.4-3,2.4s2.7-4.3,4-6.3c1.5-2,2.8-3.8,2.8-6.8s-0.1-7.8-0.1-8.5c-0.1-0.7-0.2-0.8-0.7-0.2c-0.5,0.6-2.8,3.5-4.3,6.3
	c-1.4,2.8-2.3,6-2.3,7.2s0,3.2-0.3,4.5s-1.6,5.2-2.1,6.3C197.2,177.2,197.3,177.1,198.5,176.6"/>
<path class="st1" d="M223.3,149.1c0,0-2.9,3.3-5,5.4c-2.2,2-6.1,5.3-6.5,5.8s-0.6,0.3-0.6-0.3c-0.1-0.6-0.1-4.6-0.4-6.6
	c-0.3-1.9-0.3-4.3-0.3-4.3h4.7c0,0-1.1,3-1.5,4.3c-0.3,1.3-0.3,2-0.3,2s0.8-0.8,1.8-3.4c1.1-2.5,1.1-2.8,1.1-2.8h7V149.1z"/>
<path class="st1" d="M226.2,107.7c0,0,0.1-4.3-1.5-9.4c-1.6-5.2-3.4-8.5-6.1-11.7c-0.4-0.4-0.8-0.6-0.6,0.2
	c0.3,0.8,1.8,3.9,1.8,10.8s-0.3,2.9-0.3,10h6.7V107.7z"/>
<path class="st1" d="M217.4,107.7c0,0-3.8-3.3-7.3-7.1c-3.6-3.7-4-4.3-4.4-5c-0.3-0.6-0.9-0.7-0.6,0.2c0.2,0.9,2.1,7.1,4.8,11.9
	H217.4z"/>
<path class="st1" d="M217.3,92.5c0-4.5-1.1-10.3-5.5-14.2c-1.7-1.4-2.8-2.4-3.4-3.1c-0.8-0.8-1.3-0.8-0.7,0.3
	c0.6,1.1,2.1,3.6,3.1,8.6c1.1,5,2.1,9.1,3.4,12.6c-2.8-5-2.9-6.1-8-9.2s-7.5-5.9-8.1-6.9c-0.6-0.9-0.9-0.7-0.6,0.2
	c0.3,1,2.2,6.8,7,11.1c4.6,4.3,9.7,7.8,11.6,11.6c0.3,0.7,0.8,1.2,0.8-0.2C217.1,101.9,217.3,97.7,217.3,92.5"/>
<path class="st1" d="M209.9,85.8c-0.3-1-1.6-6.9-5.8-10.5s-9.5-5.8-10.6-6.3c-1.2-0.6-1.3-0.2-0.6,0.4c0.7,0.7,3.6,4.1,5.8,7.6
	c2.3,3.5,3.8,5,6.1,6.1c2.4,1.1,4,2.3,4.6,3C209.8,86.9,210.2,86.8,209.9,85.8"/>
<path class="st1" d="M100,147.7H57c0,0-5.7-6-7.9-8.3c-0.6-0.7-1.4-1.3-1.4-2.1v-0.1c0-0.4,0.2-0.8,0.7-1.3c1.5-1.3,0.9,0,2.1,0
	h49.3c-0.1,0.4-0.1,0.9-0.1,1.3H50.5c-0.3,0-1-0.1-0.9,0.4c0.2,0.6,0.8,1.1,1.8,1.1h48.4c0.2,2.9,0.8,6,2,9l0.1,0.1
	c1,2.8,2.3,5.3,3.6,7.4c10,15,26.9,24.9,46.3,24.9v1.6c-20,0-37.4-10.2-47.6-25.6C102.5,153.7,101,150.9,100,147.7 M255.6,137.2
	c0-0.4-0.3-0.8-0.8-1.3c-1.5-1.3-0.8,0-2.1,0h-49.2c0.1,0.4,0.1,0.9,0.1,1.3h49.1c0.4,0,1.1-0.1,0.9,0.4c-0.1,0.6-0.8,1.1-1.8,1.1
	h-48.4c-0.1,2.9-0.8,6-2,9v0.1c-1,2.8-2.3,5.3-3.6,7.4c-10,15-26.9,24.9-46.4,24.9v1.6c19.9,0,37.4-10.2,47.7-25.6
	c1.5-2.3,2.9-5.1,3.9-8.3h43c0,0,5.7-6,7.9-8.3C254.7,138.7,255.6,138.1,255.6,137.2L255.6,137.2z"/>
<path class="st1" d="M192.7,106c-0.7-0.8,0-1.6,0.8-2.2c1.1-0.7-1-1.2-1-2.2c-0.6,0.1-1.1-0.2-1.3-0.8c-0.3-0.6,0.6-1.3-0.1-1.6
	c-0.4-0.1-0.8-0.2-1-0.6c-0.3-0.5-0.1-1.3-0.4-1.6c-0.9-0.9-3.2-1.4-3.2-2.9c0.3,0.1,0.5,0.4,0.8,0c-0.8-0.1-0.5-1.4-1.3-1.2
	c-0.1,0-0.4,0.1-0.6,0.1c0.1-0.5-0.6-0.7-0.4-1.3c-0.2-0.1-0.5-0.1-0.8,0.1c-0.2-0.9-0.3-1.3-1-1.9c-0.4-0.3-0.1-1.3-0.1-2
	c-0.3,0.4-0.8,0.3-0.9,0.1c-0.8-0.9-1.8-1.9-2.1-2.8c-0.2-0.7-0.6-1.3-0.9-2.1c0-0.2-0.1-0.6,0-0.7c0.3-0.2,0.5,0.7,0.6,0.3
	c0.1-1.3-1.4-3.3-2.7-2.5c-0.7,0.4-1.6,0.7-2.5,1c-1.1,0.4-2.2,0.7-3.4,0.7c-0.4-0.1-1.2,0.1-1.3,0.3c-0.6,1.3,0.6,2.6,1.1,3.8
	c0.4,0.8,0.5,1.9,1.2,2.9c-0.2,0.1-0.3,0.1-0.4,0.2c-0.1,0.2,0,0.4,0,0.6c0.5,0,0.7,0.5,1,0.8c0.2,0.3-0.1,1.1,0.2,1.6
	c0.3,0.6,0.9,1.1,1.6,1.5c0.7,0.3,1.5-0.2,2.2-0.1c0.1,0,0.3,0.2,0.3,0.4c0.4,1.4-0.6,2.9,0.4,4.2c0.4,0.6,1.5,0.3,2.1,0.6
	c0,0.1-0.1,0.7,0,0.7c0.4,0.3,0.9,0,1.3,0.1c0.1,0,0.1,0.3,0.1,0.3c0.1-0.1,0-0.3-0.1-0.1c-0.6,1.3,0.9,1.8,2,2.1
	c0.3,0.1,0.2,0.8,0.4,1c0.8,0.6,2.1,0.1,2.9,0.6c0.2,0.1,0.3,1,0.5,1.5c0.1,0.4,0.6,0.8,1,0.6c0,1.9,2.4,1.3,3.8,1.6
	c0-0.9,1.1-1.3,0.8-2.3L192.7,106z"/>
<path class="st1" d="M156.7,75.9c0.9,0.1,0.6-1,1.3-1.1c0.4,0,0.9,0.3,1.1-0.1c0.1-0.2,0.1-0.4,0.1-0.6c-0.8,0.1-1.3-1-2-0.7
	c-1.7,0.9-3.5,1.6-5.4,2c-0.1,0,0,0.3,0,0.3c1.1,0.1,2.2,0.5,3.3,0.7c0.5,0.1,1,0.9,1.5,0.8C156.9,77.3,157.6,76.4,156.7,75.9"/>
<path class="st1" d="M152.3,82.2c0.5-0.1,1-0.3,1.5-0.2c-0.2,0.6-0.1,1.2-0.3,1.6c-0.3,0.6-1.3,0.6-1.7,0c-0.7-0.7,0-1,0.6-1.4
	H152.3z"/>
<path class="st1" d="M161.6,82.1c-0.3,0.4-0.7,0.3-0.9,0.6c-0.4,0.5,0.1,0.7,0.4,1.1c0.1,0.1,0,0.3,0.1,0.5c0.1,0.3,0.6,0.1,0.5,0.6
	c0.7-0.2,0.8-1.1,1.3-1.4c0.1-0.1,0.1-0.3,0-0.4s-0.4,0.1-0.5-0.1c-0.5-0.4-0.8-1.4-1.6-0.7L161.6,82.1z"/>
<path class="st1" d="M183.6,107.7c-0.4-0.6-0.4-1.4,0-2c0.1-0.1,0.3,0,0.5,0c0,0.6,0.4,1.2-0.1,1.8
	C184,107.6,183.7,107.8,183.6,107.7"/>
<path class="st1" d="M177,105.1c-0.8,0.3-1.7,0.8-1.8,1.8c-0.3,0-0.4,0.4-0.8,0.4c0,0.2-0.1,0.4,0.1,0.5c0,0.1,0.3,0.1,0.3,0.2
	c0.1,0.2,0.1,0.5,0,0.5c-0.7,0.6-1.1,1.4-0.5,2c0.4,0.4,1-0.3,1.6-0.2c-0.3-1.1,0.1-2,1.1-2.7c0.3-0.2,0.2-0.7,0-1.1
	c0.5-0.2,0.4-0.6,0.4-0.9c-0.4,0-0.3-0.6-0.6-0.4c-0.1,0-0.1,0.1-0.1,0.2C177,105.3,177,105.3,177,105.1"/>
<path class="st1" d="M166.5,91.8c1.5-0.3,2.7-0.1,4.3-0.3c0.8-0.1,1.1,1,1.4,1.7c0.2,0.4,0.9,0.1,1.1,0.4c1.3,1.6,2.1,3.8,2.8,5.6
	c0.4,0.9,1.6,1.7,2,2.8c0.1,0.4,0.9,0.6,1.2,1.1c0,0.1,0.1,0.5-0.2,0.7c0.3,0.3,0.6,0.1,0.7,0.2c0.2,0.9,0.9,1.6,1.4,2.3
	c0.3,0.2,0.1,0.9,0.1,1.4c0.1,0.1,0.2,0.2,0.3,0.4c0.1,0.5-0.2,0.9-0.2,1.3c0.1,0.7,0.3,1.4,0.3,2.2c-0.6-0.1-1.1-0.3-1.7-0.6
	c-0.2-0.1-0.1-0.4-0.2-0.5c-0.6-0.8-3.1-1.3-1.8-2c0.7-0.4,1.6-1.2,1.3-2.1c-0.1-0.3-0.5-0.3-0.7-0.5c-0.5-0.4-0.1-1.2-0.5-1.7
	c-0.4-0.6-1.1-0.7-1.7-1.2c-0.3-0.3-0.1-0.9-0.5-1.1c-1.2-0.9-2.6-1.4-3.4-2.5c-0.4-0.4,0.6-1.4,0.1-2.1c-0.4-0.7-1.3-1.1-1.8-1.9
	c-0.2-0.4,0.1-0.6,0.3-0.9c0.1-0.2,0.1-0.5,0-0.7c0-0.4-0.6-0.3-0.7-0.6c-0.6,0.6-1.4,0-2,0.2c-0.3,0.2-0.6,0.4-1,0.2
	c-0.6-0.4-1-1-0.8-1.7c0-0.4,0.6-0.5,1.2-0.4L166.5,91.8z"/>
<path class="st1" d="M180.4,101.6h0.2c-0.2-0.1-0.6-0.1-0.6,0.1c0,0.7,0.7,1,1.3,1.1C181.3,102.3,181,101.6,180.4,101.6"/>
<path class="st1" d="M181.7,104.2h-0.4c0.1,0.2-0.1,0.2-0.3,0.4c0.3,0.4,0.6,1.1,0.9,1c0.8-0.2,0.3-1.4,0.4-2.2
	c-0.3,0.5-0.9,0.6-0.9,1.2C181.5,104.4,181.7,104.3,181.7,104.2"/>
<path class="st1" d="M180.4,117.8c0.5-0.5,0.4-1.3,1.1-1.5c0.5-0.3,1.1-0.5,1.4-0.8c0.2-0.3,0.1-1.1,0.3-1.1
	c1.2-0.2,0.7,1.3,0.4,1.8c-1.1,1.7-1.8,4.5-3.9,3.9c-1.2-0.3-0.6-2.2-0.8-3.6c-0.1-0.7-1.4-0.2-2.1-0.5c-0.6-0.2,0.5-1-1-1.2
	c1.3-0.2,2.7-0.8,3.6-0.2c0.8,0.6-0.3,3.1,1.3,3.2L180.4,117.8L180.4,117.8z"/>
<path class="st1" d="M184.3,116.8c-0.4,0.9,0.1,1.4-0.9,2c-0.1,0.1,0.3,0.6,0.1,0.6c-0.4,0.2-0.8,0.3-1.1,0.6
	c0.6,0.4,1.6,1.1,1.8,0.9c0.8-1.7,2.1-4.1,0.3-5.7c-0.1,0.4,0.1,0.9,0.1,1.3c-0.1,0.2-0.4,0.6-0.3,0.9L184.3,116.8L184.3,116.8z"/>
<path class="st1" d="M184.9,109.2c-0.4-0.4-1.2-0.3-1.4,0.1c-0.3,0.6,0.2,1.4,0.4,2.1c0.3,0.7-1.2,2-0.2,2.8
	c0.3,0.2,1.4-0.4,1.4-0.8c0.1-1.4,0.6-3.1,0-4.4c0-0.2-0.5-0.3-1-0.1L184.9,109.2z"/>
<path class="st1" d="M166.3,89.9c-0.3-0.1-0.4,0.1-0.4,0.2c-0.1,0.6,0.6,0.5,0.9,0.8c0-0.4,0.1-0.8,0-1.1c-0.1-0.1-0.4-0.1-0.8-0.1
	C166.1,89.8,166.2,89.8,166.3,89.9"/>
<path class="st1" d="M174.7,124.2c0,12.7-10.3,23-23.1,23.1v-1.6c11.9,0,21.5-9.7,21.5-21.5s-9.6-21.5-21.5-21.5v-1.6
	C164.4,101.2,174.7,111.5,174.7,124.2 M151.6,147.3L151.6,147.3c-12.7,0-23.1-10.4-23.1-23.1s10.4-23,23.1-23v1.6
	c-11.9,0-21.5,9.6-21.5,21.5s9.6,21.5,21.5,21.5V147.3z"/>
<path class="st1" d="M118.4,94.3c-0.4-0.7,0.3-1.6-0.1-1.9c-0.7-0.7-1.7,0.3-2.1,0.9c-0.5,0.9,1,0.9,1.8,0.9c0.2,0,0.3,0.2,0.2,0.4
	C118.3,94.4,118.4,94.4,118.4,94.3"/>
<path class="st1" d="M151.9,113.9c-0.6-0.1-0.8-0.8-1.3-1.2c-0.7-0.3-1.3,0.1-1.9-0.1c-0.3-0.1-0.5-0.3-0.8-0.5
	c-0.2-0.1-0.5-0.1-0.7-0.1c-0.8,0.2-0.6,1.1-0.8,1.6c-0.3,0.7-0.9,1.1-1.8,1.1c-0.1-0.1-0.3,0.2-0.4,0.2c-1.2,0.4-2.5,0.4-3.5-0.1
	c-1.4-0.6-2.4-1.8-3.8-2c-1.5-0.3-3-0.3-4.5,0.1c-0.2,0.1-0.3,0.4-0.6,0.5s-0.7,0.2-1,0.4c-1.1,0.6-1.4,2.3-2.7,2.8
	c-1.5,0.5-2.6,2.1-2.4,3.6c-0.8-0.2-1.4,0.5-1.5,0.8c-0.4,0.9-0.8,1.8-1.1,2.6c-0.2,0.6-0.2,1.7-0.1,2.6c0.2,0.7-0.8,1.8-0.4,2.6
	c0.1,0.6,0.1,1.3,0.6,1.6c-0.1-1.1-0.1-2.5,1.2-3.3c0.2-0.1,0-0.9,0.1-1.2c0.3-0.7,0.1-1.6,0.4-1.8c0.9-0.6,1.1-1.5,1.4-2.3
	c0-0.1,0.3,0,0.3-0.1c0.2-0.3,0.4-0.4,0.5-0.7c0.3-0.6,1.3-0.6,1.6,0c1.1,2.4-0.6,5.9,2.2,7c1.1,0.5,2.1,1.3,3.3,1.8
	c0.7,0.3,1.6,0.7,1.9,1.6c0.1,0.6,1.3,0.4,1.5,0.9c0.2,0.6,0.6,1.1,0.6,1.8c0.5-0.3,0.9-0.7,0.8-1.2c0.4,0.5,0.1,1.4,0.7,1.8
	c-0.1-1.5,1.2-2.7,2.2-3.6c0.3-0.3,0.9-0.2,1.1-0.7c0.2-0.5,0.3-1.1,0.5-1.3c0.6-0.7,1.2-1.1,1.9-1.7c0.6-0.4,0.7-1.3,1.2-1.8
	c-0.6,0.2-1.9,0.3-1.4-0.5c0.8-1.2,2-1.2,2.9-2.3c0.1-0.1-0.2-1.1-0.2-1.3c-0.9,0.3-1.9,0.7-2.7,0.1c-0.3-0.2,0-0.7,0.2-0.9
	c0.7-1.2,1.5-2.1,2.3-2.8c0.4-0.5,1.8-0.4,2.6-0.9s0.4-1.5,0.9-2.3C151.6,114.4,151.5,113.9,151.9,113.9"/>
<path class="st1" d="M130,126.7c-0.5,0.1-0.8,0.5-1.1,0.7c-0.4,0.2-0.9,0-1.2-0.3c-0.1,0.6,0.2,1.1,0.1,1.7
	c-0.1,0.6-1.1,0.8-0.8,1.1c0.5,0.6,0.6,1.4,1.2,1.6c0.4,0.2,0.2-0.2,0.2-0.3h-0.2c0.2-0.6,0.4-0.8,0.9-1.1c0.3-0.3-0.4-1.1-0.1-1.5
	c0.5-0.7,1.6-0.7,2.1-1.6c-0.6,0.1-0.2-1-0.9-0.7C130.1,126.4,130.1,126.6,130,126.7"/>
<path class="st1" d="M127.2,131.6c0,0.4-0.6,0.8-0.3,1c0.6,0.7,1,1.8,2,2c-0.1-0.8-0.4-1.6-0.2-2.5
	C128.1,132.2,127.6,131.9,127.2,131.6"/>
<path class="st1" d="M149.3,123.5c1.1,0.4,0.6,1.5,1,1.6c1.1,0.4,1.3,0.4,1.4,1.5c0,0.2-0.3,0.2-0.3,0.4c0,1.3-0.8,2.6-1.9,3.3
	c-0.1,0.1-0.1,0.6-0.3,0.8c-0.7,0.6-1.6,0.7-2.6,0.7c0.1,0.2-0.4,0.4-0.3,0.7c-0.9,0-2.3,0.3-2.6-0.1c-0.7-1.2,1.7-2.2,2.4-3.3
	c0.8-1.1,1.3-2.4,1.7-3.8c0.1-0.4,0.7-1.1,1.3-1.3c0.7-0.1,1.3,0.2,1.5,0.9h-0.2L149.3,123.5z"/>
<path class="st1" d="M149.9,132.3c-0.4-0.2-0.8-0.4-1.1-0.2c-0.5,0.4-0.2,1.1-0.2,1.6c0.7,0.1,1.4-0.2,1.8-0.6
	c0.2-0.3,0-0.8-0.2-1.1c-0.2-0.3-0.6,0.2-0.9,0.2c-0.1,0.1-0.2-0.1-0.2-0.3L149.9,132.3z"/>
<path class="st1" d="M153.6,127.7c-0.3,0-0.6-0.1-0.7,0c-0.6,0.4-0.2,0.6-0.1,1.3c0,0.1-0.2,0.2-0.4,0.2c0.1,0.1,0.1,0.3,0.2,0.3
	c0.9,0.2,0.6-0.4,0.6-1.1c0.2,0,0.4,0.1,0.5,0s0.1-0.4,0-0.5c0-0.1-0.2,0-0.3-0.1C153.3,127.7,153.4,127.6,153.6,127.7"/>
<path class="st1" d="M121,129.3c0.8,0.1,1.8-0.1,2.4,0.4c1.1,0.8,1.8,2,2,3.1c0.6,2.2,1.4,4.3,1.5,6.5c0,0.4-0.6,0.9-0.6,1.3
	c-0.1,1.4,1.3,2.1,2.5,2.6c-0.1,0.3,0.2,0.7-0.2,0.9c0.1,0.1,0.3,0.3,0.3,0.4c-0.1,0.6-0.3,1.1-0.6,1.7s0.3,1.1,0.4,1.7
	c0.2,0.6,0,1.4,0.4,2c1.1,1.5,2.5,2.7,4.6,3.1c0.1,0,0.4,0.6,0.2,0.8c-1.2,1.3-3.3,0.2-4.4,1.1c-0.9,0.9-2.1,1.3-3.3,1.4
	c-1.1,0.2-1.6-1.4-2.6-1.4c-1.2-0.1-2.1-0.9-3.3-1.1h0.1c-0.4,0.3-0.9,0.3-1.3,0.2c-0.3-0.2-0.6-0.3-0.9-0.4
	c-0.9-0.6-1.4-1.6-2.2-2.1c-0.9-0.4-1.9-0.2-2.9-0.8c-0.6-0.5-0.9-1.1-1.4-1.6c-0.5-0.7-0.5-1.8-1.3-2.3c-0.6-0.4-1.4-0.4-2.1-0.7
	c-0.1-0.1-0.2-0.2-0.2-0.5c-0.6,0.1-1.3-0.4-1.9-0.4h0.2c-0.6,0-1.2-0.1-1.6,0.4c-0.2-0.2-0.4-0.3-0.6-0.4c0.5,0.6-0.3,1.4,0,2.1
	c-0.3-0.6,0.4-1.4-0.1-1.8c-1-0.7-1.3-2.3-0.8-3.3c0.1-0.3-0.9-0.7-0.7-1.3c0.3-0.7,0.6-1.3,0.6-2.1c0-0.1,0.2-0.3,0.3-0.3
	c1.3-0.4,2.3,1.1,3.3,0.5c0.4-0.2,0.3-1.5,1-1.6c1.3-0.1,2.3,0.3,3.4,1.1c0.1,0.1,0.7,0.7,0.8,0.1c0.1-0.6,0.7-0.6,1.2-0.8H113
	c0.7-0.7,1.8-0.2,2.6-0.4c-0.6-1.4,0.2-2.9-0.1-4.4c-0.1-0.3,0.4-0.3,0.6-0.6c0.5-0.8,0.7-1.6,0.9-2.6c0.1-0.6,0.9-0.8,1.3-1
	c1-0.6,2.3-0.6,3.3,0.3c0.1,0.1,0,0.2,0,0.4L121,129.3z"/>
<path class="st1" d="M149.9,136.9c-0.4-0.2-0.6,0.3-0.9,0.3c0.1,0.6,0.6,1.5,1.5,1.6v-2c-0.3,0.1-0.8-0.3-1.1,0.1H149.9z"/>
<path class="st1" d="M173.3,135.8c0,1.8,0.3,3.4-0.3,5.1c-0.2,0.5-0.6,1.2-1,1.3c-1.6,0.4-3.2,0.5-4.8,0.8c-1,0.3-2.2-0.6-3.4-0.2
	c-0.6,0.2-1.6-0.1-2,0.3c-0.5,0.6-0.9,1-1.6,0.6c-0.1-0.1-0.1-0.7,0-0.8c0.7-0.6,0.6-1.5,1.3-2.1c0.8-0.8,1.8-1.4,1.8-2.2
	c0-0.6-1.5-0.8-1.9-0.6c-1.2,0.7-2.8,2.3-2.2,3.9c0.2,0.6,0.7,1.3,0.3,1.8c-0.1,0.2-0.9-0.1-1.1-0.3c-0.4-0.8-1.3-1-1.5-1.9
	c0.2,0.8,0.9,2.6,0.1,3.2c-1.1,0.9-1.6,0.1-1.6-0.4c0.2,0,0.2-1,0.4-1c0-0.3,0.1-0.7-0.3-0.9c-0.7-0.4-1.5,0-2.1,0.4
	c-0.3,0.2-1.1-0.3-1.6,0c-0.9,0.4-0.1,2-1,2.3c-1.7,0.6-1.9-1.8-1.6-3.1c0.1-0.5,1-0.6,1.3-1c0.7-0.7,0-1.7,0.1-2.5
	c0.1-0.3,0.6-0.1,0.7-0.4c0.1-0.6-0.1-1.2-0.1-1.5c-0.1-1.3,1.4-2.2,2.2-3c0.5-0.5,1-1.7,1.4-2.5c0.1-0.2-0.2-0.9,0-1.2
	c0.5-0.6,1.4-0.1,2.1-0.3c0.8-0.3,1.1-1.1,1.2-1.8c0.2-1.1,0.2-2.3-0.5-3.1c-0.5-0.6-1.4-1.2-1.6-1.8c-0.3-1.1,0.8-2.1,1.2-3.3
	c0.1-0.4-0.3-0.8-0.3-1.1c-1.1,0.3-1.4-0.8-2.1-1.1c-1.1-0.4-2.2-0.8-3.2-1.4c-1.1-0.9,0-2.4-0.1-3.6c0.5,0.1,0.5-0.1,0.5-0.3
	c1.1-0.1,2.2,0.3,2.9-0.6c0.1-0.1,0-0.4,0.1-0.5c0.5-0.6,1.4-0.9,1.7-0.5c0.2,0.3-0.5,1.8-0.6,2.1c0,0.1,0.1,0.2,0.3,0.2
	c0.4-0.1,0.6,0.4,0.6,0.6c0.7-0.1,0.8,0.4,1.2,0.8c1.2,1,0.9-1.7,1.3-2.6c0.1-0.1,0.4-0.1,0.7-0.1c-0.1,0-0.3,0.1-0.3,0
	c-0.3-0.8,0.6-1.1,0.8-1.6c0.2-0.4-0.3-0.9-0.1-1.3c0.1-0.1,0.2-0.3,0.4-0.2c1.4,1,2.7-0.8,3.9-1.2c1.5-0.5,2.7,0.8,3.3,2.1
	c-0.2,0-0.1,0.6-0.5,0.4h0.1c0.1,0.8-0.7,0.9-1.2,1.3c-0.1,0.1-0.1,0.4,0,0.4c0.1,0.2,0.5,0.1,0.6,0.1c0.9-0.3,1.3-1.6,2.2-1.2
	c0.8,0.4,1.6,0.6,2.4,0.4c0.2,0,0.4-0.3,0.4-0.5c0.4,0.6,0.8,0.9,1,1.8c0.1,0.6,1.2,0.8,1.3,1.3c0.1,1.3,1.2,1.6,1.6,2.5
	c0.6,1.5,2.1,2.5,3.1,4c0.2,0.3,0.2,0.9,0,1c-0.3,0.3-1,0.7-1,1.1c-0.1,0.9-1.1,1.6-0.7,2.5c0.4,0.9-0.1,1.8,0.2,2.6
	c0.4,1.7,2.8,1.9,4.4,1.3c0.4,2.6-2.8,3.7-4.9,3.4c0.1,0.4-0.6,0.4-0.6,0.6c-0.7,0.9-1.7,0.5-2.7,0.9c-0.1,0,0,0.2,0,0.3
	c-0.4-0.1-0.5,0.3-0.7,0.4c-0.4,0.4,0,1.2-0.3,1.8v0.1H173.3z"/>
<path class="st1" d="M156,125.7c-0.3,0.1-0.4,0.4-0.1,0.6c0.1,0.3,0.4,0.2,0.6,0C156.8,125.9,156.3,125.7,156,125.7"/>
<path class="st1" d="M157.4,126.9c0-0.1-0.3-0.1-0.4-0.1c0,0.1,0.3,0.3,0.2,0.4c-0.3,0.1-0.9,0.1-0.7,0.4c0.3,0.5,1-0.1,1.5,0.1
	c0-0.2,0.2-0.4,0-0.5C157.8,127.3,157.4,127.4,157.4,126.9"/>
<path class="st1" d="M176.5,140.8c-0.4-0.4-1.3-0.6-1.3,0.3c0,0.1,0.1,0.1,0.2,0.1c-0.1,0.3-0.2,0.7,0.1,0.9
	c0.1,0.1,0.3,0.1,0.3-0.1c0.1-0.2,0-0.3,0.1-0.5c0.2-0.3,0.7-0.4,0.9-0.6C177,140.9,176.6,140.9,176.5,140.8"/>
<path class="st1" d="M159.4,145.5c0.6,0.1,1.1-0.1,1.6-0.4c1.5-1.1,3.7-2.1,5.3-0.9c1.3-0.9,3.2,0.5,4.6,0.1
	c1.1-0.3,2.5-1.3,2.8-2.8c0.6,1.2,2.1,3,1.8,5c-0.4,2-0.8,2.4-1.8,4c-0.7,1,0.3,2.4,1.8,2.7c0.6,0.1,1.1,1.3,0.9,2.2
	c0,0.3-0.6,0.2-0.6,0.6c-0.1,0.7,0.3,1.4,0.2,2c-0.2,0.8,0.1,1.4-0.2,2.1c-0.2,0.6-0.2,1.4-0.6,2c-1.1,1.3-2.4,2-4.1,2.4
	c-1.8,0.3-1,1.8-2.6,2.3c-0.7,0.3-2.6,1-3.2,0.7c-1.2-0.5-3.5-1.2-4.5-1.9c-0.4-0.3-0.5-0.7-0.4-1.1c-0.2,0.1-0.2-0.6-0.6-0.3
	c-0.3-0.8-0.6-1.6-0.4-2.6c0.2-0.5,0.6-0.9,0.3-1.2c-0.5-0.6-1.3-1-1.5-1.5c-0.4-1-0.2-2.6-1.1-2.7c-1.6-0.1-3.3,0.3-4.9,0.6
	c-1.8,0.4-3.9,0.1-5-1.1c-0.6-0.6-0.1-2.3-0.9-3c-0.6-0.5-0.6-1.3-0.6-1.6c-0.3-1.6-0.3-4.5,2.1-4.6c0.1,0,0.3-0.4,0.6-0.4
	c1.8-0.1,3.6-2,4.8-0.4c2.2-0.1,5.8,1.5,6.7-0.9h-0.2L159.4,145.5z"/>
<path class="st1" d="M180.2,149c0.8-0.1,1.8,0.1,1.9,0.8c0.3,1.3,0.4,2.8,0.1,4c-0.1,0.5-0.1,1.1-0.4,1.5c-0.9,1.1-2.2,0.3-2.6-0.9
	c-0.4-1.1-0.4-2.4-0.1-3.5c0.1-0.3,1-0.1,1.1-0.6c0.1-0.4-0.3-0.8-0.2-1.1c0-0.3,0.4-0.4,0.8-0.4L180.2,149z"/>
<path class="st1" d="M105.2,148.7c-0.8,1,0.9,1.1,0.8,1.9C106.1,149.8,105.2,149.4,105.2,148.7"/>
<path class="st1" d="M185.6,124.2c0,18.8-15.2,34-33.9,34v-1.6c17.9,0,32.4-14.6,32.4-32.4c0-17.9-14.4-32.4-32.4-32.4v-1.6
	C170.4,90.3,185.6,105.5,185.6,124.2 M151.6,158.2L151.6,158.2c-18.8,0-34-15.3-34-34c0-18.8,15.2-33.9,34-33.9v1.6
	c-17.9,0-32.4,14.5-32.4,32.4s14.5,32.4,32.4,32.4V158.2z"/>
<path class="st1" d="M165.5,124.2c0,7.7-6.2,13.9-13.9,13.9v-1.3c7,0,12.6-5.6,12.6-12.5s-5.6-12.5-12.6-12.5v-1.3
	C159.2,110.4,165.5,116.6,165.5,124.2 M151.6,138.1L151.6,138.1c-7.7,0-13.9-6.2-13.9-13.9s6.2-13.8,13.9-13.8v1.3
	c-6.9,0-12.5,5.6-12.5,12.5s5.6,12.5,12.5,12.5V138.1z"/>
<path class="st1" d="M84,201.1c0.4,0.4,0.9,0.6,1.4,0.9c0.6,0.3,0.3,1.1,0.1,1.3c-0.1,0.3-0.7,0.3-1.4,0.1H84V201.1z M84,191.5
	c1.6,1.5,3.5,3.1,4.2,4c1.4,1.7,1.5,1.8,1.5,1.8l-3.1,3.4l-2.6-2.3v-2.1l2.1,2l1.4-1.5l-3.5-3.2V191.5z M81.7,198.9
	c1.1,1,1.9,1.8,2,2c0.1,0.1,0.1,0.1,0.2,0.2v2.3c-0.6-0.3-0.5-0.8-0.9-1.2c-0.1-0.2-1-0.9-2.1-2V197c0.2-0.3,0.4-0.6,0.5-0.8
	l-0.5-0.4v-2.3l3,2.8v2.1l-1.1-0.9C82.4,198,82,198.5,81.7,198.9 M81,205.8c0.6,0.2,1.3-0.4,1.3-0.4l0.7,1.5c0,0-0.3,1.2-2,1.3
	V205.8z M81,189.2v3.3l0.9-0.8l2.1,1.9v-2.1c-1.6-1.4-2.9-2.5-2.9-2.5L81,189.2z M81,200.3L81,200.3c-0.9,1.9-0.5,3.1-0.5,4.5
	c0,0.8,0.2,1,0.5,1.1v2.3h-0.3c-0.4,0-0.7-0.2-1-0.5V197c0.3,0.3,0.5,0.5,0.8,0.7c0.1-0.3,0.3-0.5,0.5-0.8V200.3z M79.7,190.5
	l1.3-1.3v3.3l-0.5,0.5l0.5,0.5v2.3l-1.3-1.1V190.5z M79.7,207.7c-1.1-1.3-1.2-4.4-1.1-5.8c0.1-1.2,0.6-2.1,0.9-2.8l-2.8-2.5
	l-2.3,2.6L77,200l-0.7,1.6l-5.6-1.2l0.6-1.9l1.1-0.3l7.2-7.7v4.1l-0.6-0.5l-1.2,1.3c0.3,0.3,1,0.9,1.8,1.6L79.7,207.7L79.7,207.7z"
	/>
<rect x="372.2" y="87.6" class="st1" width="7" height="92.8"/>
<path class="st1" d="M429.5,181.2c-9.2,0-17.1-3.4-22.5-8.9c-8.6-8.6-9.3-15.8-9.3-38.3s0.7-29.7,9.3-38.3
	c5.5-5.5,13.3-8.9,22.5-8.9c16.7,0,28.4,10.4,31.6,27.1h-7.2C451.2,101,442,93,429.5,93c-6.8,0-12.8,2.3-17.6,7.2
	c-6.7,6.6-7.2,14.2-7.2,33.8c0,19.6,0.5,27.1,7.2,33.8c4.8,4.8,10.8,7.2,17.6,7.2c12.5,0,21.9-8,24.6-20.9h6.9
	C458,170.8,446,181.2,429.5,181.2"/>
<path class="st1" d="M538.7,180.4l-8.1-22.6h-43.3l-8.1,22.6h-7.6l34.2-92.8h6.3l34.2,92.8L538.7,180.4L538.7,180.4z M489.5,151.6
	h38.8L508.9,97L489.5,151.6z"/>
<path class="st1" d="M610.2,172.3c-5.5,5.5-13.3,8.9-22.6,8.9s-17.1-3.4-22.6-8.9c-8.6-8.6-9.2-15.8-9.2-38.3
	c0-22.6,0.6-29.7,9.2-38.3c5.5-5.5,13.3-8.9,22.6-8.9c9.2,0,17.1,3.4,22.6,8.9c8.6,8.6,9.3,15.8,9.3,38.3S618.8,163.7,610.2,172.3
	 M605.3,100.2c-4.8-4.8-10.8-7.2-17.6-7.2s-12.8,2.3-17.6,7.2c-6.7,6.6-7.2,14.2-7.2,33.8s0.5,27.1,7.2,33.8
	c4.8,4.8,10.8,7.2,17.6,7.2s12.8-2.3,17.6-7.2c6.6-6.7,7.2-14.2,7.2-33.8S611.9,106.9,605.3,100.2"/>
<rect x="326.6" y="65.1" class="st2" width="2.7" height="138"/>
</svg>
