<?xml version="1.0" encoding="UTF-8"?><svg id="uuid-3152a9ed-79bf-4923-81e2-b7cd1e47e4d7" xmlns="http://www.w3.org/2000/svg" width="217.33" height="55" xmlns:xlink="http://www.w3.org/1999/xlink" viewBox="0 0 217.33 55"><defs><linearGradient id="uuid-826b3c7e-47d4-4dfe-b8f5-c11e83adb4ec" x1="27.5" y1="48.91" x2="27.5" y2="3.91" gradientUnits="userSpaceOnUse"><stop offset=".01" stop-color="#fff" stop-opacity=".5"/><stop offset=".17" stop-color="#f9c3bf" stop-opacity=".66"/><stop offset=".34" stop-color="#f58a83" stop-opacity=".81"/><stop offset=".51" stop-color="#f16258" stop-opacity=".91"/><stop offset=".67" stop-color="#ef493e" stop-opacity=".98"/><stop offset=".8" stop-color="#ef4136"/></linearGradient><linearGradient id="uuid-113df482-0593-449c-90c0-cc53e573ae3d" x1="27.5" y1="26.09" x2="27.5" y2="51.09" gradientUnits="userSpaceOnUse"><stop offset=".01" stop-color="#fff" stop-opacity=".3"/><stop offset=".08" stop-color="#e7eaf4" stop-opacity=".38"/><stop offset=".34" stop-color="#9ba7d0" stop-opacity=".65"/><stop offset=".58" stop-color="#6477b7" stop-opacity=".84"/><stop offset=".81" stop-color="#435aa8" stop-opacity=".96"/><stop offset="1" stop-color="#3850a3"/></linearGradient></defs><path d="m27.5,48.91c-12.41,0-22.5-10.09-22.5-22.5S15.09,3.91,27.5,3.91s22.5,10.09,22.5,22.5-10.09,22.5-22.5,22.5Zm0-39.44c-9.1,0-16.5,7.4-16.5,16.5s7.4,16.5,16.5,16.5,16.5-7.4,16.5-16.5-7.4-16.5-16.5-16.5Z" style="fill:url(#uuid-826b3c7e-47d4-4dfe-b8f5-c11e83adb4ec); stroke-width:0px;"/><path d="m50,51.09H5v-5.14h45v5.14Zm0-10.13H5v-5.14h45v5.14Zm0-9.73H5v-5.14h45v5.14Z" style="fill:url(#uuid-113df482-0593-449c-90c0-cc53e573ae3d); stroke-width:0px;"/><path d="m88.6,30.43c0-5.27.06-10.87.19-13.97h-.14c-1.35,5.35-5.51,17.72-8.41,26.01h-3.67c-2.18-6.94-6.45-20.47-7.81-26.08h-.16c.23,3.36.33,9.79.33,14.77v11.31h-3.78V13.51h6.05c2.83,8.23,6.48,19.72,7.44,23.79h.06c.58-2.96,4.99-15.5,7.95-23.79h5.88v28.96h-3.93v-12.05Z" style="fill:#ef4137; stroke-width:0px;"/><path d="m101.18,32.57c-.02,3.96,1.64,7.1,5.3,7.1,3.27,0,4.27-2.25,4.66-3.34h3.85c-.77,2.84-2.93,6.54-8.67,6.54-6.72,0-9.1-5.15-9.1-11.14,0-5.26,2.59-11.06,9.31-11.06s8.79,5.21,8.79,10.25c0,.15-.02,1.47-.04,1.65h-14.09Zm10.28-2.78c-.11-3.4-1.47-6.01-5.02-6.01-4.03,0-5,3.59-5.17,6.01h10.19Z" style="fill:#ef4137; stroke-width:0px;"/><path d="m117.37,21.09h3.35v-6.14h3.88v6.14h4.22v3.16h-4.22v12.92c0,1.73.43,2.45,2.24,2.45.57,0,1.09-.05,1.58-.13v2.87c-.88.31-2.17.37-2.92.37-3.31,0-4.79-1.28-4.79-4.91v-13.57h-3.35v-3.16Z" style="fill:#ef4137; stroke-width:0px;"/><path d="m132.47,13.51h17.26v3.42h-13.3v9.17h12.47v3.38h-12.47v13h-3.97V13.51Z" style="fill:#3a53a4; stroke-width:0px;"/><path d="m171.71,31.44c0,6.2-2.76,11.41-9.69,11.41s-9.43-5.45-9.43-11.3,3.07-10.88,9.7-10.88c6.22,0,9.42,4.68,9.42,10.77Zm-15.11.05c0,4.85,1.92,8.15,5.63,8.15s5.46-3.23,5.46-8.18c0-4.56-1.84-7.59-5.59-7.59s-5.51,3.11-5.51,7.62Z" style="fill:#3a53a4; stroke-width:0px;"/><path d="m176.28,27.78c0-4.45-.04-5.77-.08-6.69h3.83c.06.4.16,2.33.14,3.24.88-1.87,2.82-3.66,6.24-3.66,4.06,0,6.8,2.36,6.8,7.97v13.84h-3.92v-13.19c0-2.97-.96-5.25-4.05-5.25-3.57,0-5.04,2.57-5.04,6.91v11.53h-3.9v-14.7Z" style="fill:#3a53a4; stroke-width:0px;"/><path d="m196.24,21.09h3.35v-6.14h3.88v6.14h4.22v3.16h-4.22v12.92c0,1.73.43,2.45,2.24,2.45.57,0,1.09-.05,1.58-.13v2.87c-.88.31-2.17.37-2.92.37-3.31,0-4.79-1.28-4.79-4.91v-13.57h-3.35v-3.16Z" style="fill:#3a53a4; stroke-width:0px;"/></svg>